<?xml version="1.0" encoding="UTF-8" standalone="no"?>
<!-- Created with Inkscape (http://www.inkscape.org/) -->

<svg
   xmlns:dc="http://purl.org/dc/elements/1.1/"
   xmlns:cc="http://creativecommons.org/ns#"
   xmlns:rdf="http://www.w3.org/1999/02/22-rdf-syntax-ns#"
   xmlns:svg="http://www.w3.org/2000/svg"
   xmlns="http://www.w3.org/2000/svg"
   xmlns:sodipodi="http://sodipodi.sourceforge.net/DTD/sodipodi-0.dtd"
   xmlns:inkscape="http://www.inkscape.org/namespaces/inkscape"
   version="1.1"
   id="svg2"
   xml:space="preserve"
   width="2560"
   height="1440"
   viewBox="0 0 2560 1440"
   sodipodi:docname="IntroQG-video-intro-screen.svg"
   inkscape:export-filename="/Users/whipp/Work/Teaching-and-seminars/HY/Quantitative_Geology/site-git/png/Lesson-1-title-slide.png"
   inkscape:export-xdpi="300"
   inkscape:export-ydpi="300"
   inkscape:version="0.92.2 5c3e80d, 2017-08-06"><metadata
     id="metadata8"><rdf:RDF><cc:Work
         rdf:about=""><dc:format>image/svg+xml</dc:format><dc:type
           rdf:resource="http://purl.org/dc/dcmitype/StillImage" /><dc:title></dc:title></cc:Work></rdf:RDF></metadata><defs
     id="defs6"><radialGradient
       id="radialGradient472"
       spreadMethod="pad"
       gradientTransform="matrix(504.12772,0,0,-504.12772,1304.0386,600.87915)"
       gradientUnits="userSpaceOnUse"
       r="1"
       cy="0"
       cx="0"
       fy="0"
       fx="0"><stop
         id="stop5015"
         offset="0"
         style="stop-opacity:1;stop-color:#333333" /><stop
         id="stop5017"
         offset="0.163784"
         style="stop-opacity:1;stop-color:#000000" /><stop
         id="stop5019"
         offset="0.27516503"
         style="stop-opacity:1;stop-color:#000000" /><stop
         id="stop5021"
         offset="0.837298"
         style="stop-opacity:1;stop-color:#000000" /><stop
         id="stop5023"
         offset="0.92734233"
         style="stop-opacity:1;stop-color:#000000" /><stop
         id="stop5025"
         offset="1"
         style="stop-opacity:1;stop-color:#000000" /></radialGradient><clipPath
       clipPathUnits="userSpaceOnUse"
       id="clipPath20"><path
         d="M 721.539,247.981 H 1886.538 V 953.779 H 721.539 Z"
         id="path18"
         inkscape:connector-curvature="0" /></clipPath><clipPath
       clipPathUnits="userSpaceOnUse"
       id="clipPath420"><path
         d="M 688.077,241.879 H 1920 V 959.88 H 688.077 Z"
         id="path418"
         inkscape:connector-curvature="0" /></clipPath><radialGradient
       fx="0"
       fy="0"
       cx="0"
       cy="0"
       r="1"
       gradientUnits="userSpaceOnUse"
       gradientTransform="matrix(504.12772,0,0,-504.12772,1304.0386,600.87915)"
       spreadMethod="pad"
       id="radialGradient442"><stop
         style="stop-opacity:0;stop-color:#ffffff"
         offset="0"
         id="stop430" /><stop
         style="stop-opacity:0;stop-color:#ffffff"
         offset="0.163784"
         id="stop432" /><stop
         style="stop-opacity:0;stop-color:#ffffff"
         offset="0.27516503"
         id="stop434" /><stop
         style="stop-opacity:1;stop-color:#ffffff"
         offset="0.837298"
         id="stop436" /><stop
         style="stop-opacity:1;stop-color:#ffffff"
         offset="0.92734233"
         id="stop438" /><stop
         style="stop-opacity:1;stop-color:#ffffff"
         offset="1"
         id="stop440" /></radialGradient><mask
       maskUnits="userSpaceOnUse"
       x="0"
       y="0"
       width="1"
       height="1"
       id="mask444"><g
         id="g454"><g
           id="g452"><g
             id="g450"><g
               id="g448"><path
                 d="M -32768,32767 H 32767 V -32768 H -32768 Z"
                 style="fill:url(#radialGradient442);stroke:none"
                 id="path446"
                 inkscape:connector-curvature="0" /></g></g></g></g></mask><radialGradient
       fx="0"
       fy="0"
       cx="0"
       cy="0"
       r="1"
       gradientUnits="userSpaceOnUse"
       gradientTransform="matrix(504.12772,0,0,-504.12772,1304.0386,600.87915)"
       spreadMethod="pad"
       id="460"><stop
         style="stop-opacity:1;stop-color:#333333"
         offset="0"
         id="stop460" /><stop
         style="stop-opacity:1;stop-color:#000000"
         offset="0.163784"
         id="stop462" /><stop
         style="stop-opacity:1;stop-color:#000000"
         offset="0.27516503"
         id="stop464" /><stop
         style="stop-opacity:1;stop-color:#000000"
         offset="0.837298"
         id="stop466" /><stop
         style="stop-opacity:1;stop-color:#000000"
         offset="0.92734233"
         id="stop468" /><stop
         style="stop-opacity:1;stop-color:#000000"
         offset="1"
         id="stop470" /></radialGradient><clipPath
       clipPathUnits="userSpaceOnUse"
       id="clipPath482"><path
         d="M 0,1080 H 1920 V 0 H 0 Z"
         id="path480"
         inkscape:connector-curvature="0" /></clipPath><clipPath
       clipPathUnits="userSpaceOnUse"
       id="clipPath490"><path
         d="m 1184.19,1044.09 h 690.04 v -70.653 h -690.04 z"
         id="path488"
         inkscape:connector-curvature="0" /></clipPath></defs><sodipodi:namedview
     pagecolor="#ffffff"
     bordercolor="#666666"
     borderopacity="1"
     objecttolerance="10"
     gridtolerance="10"
     guidetolerance="10"
     inkscape:pageopacity="0"
     inkscape:pageshadow="2"
     inkscape:window-width="1426"
     inkscape:window-height="840"
     id="namedview4"
     showgrid="false"
     inkscape:zoom="0.36679688"
     inkscape:cx="1277.2737"
     inkscape:cy="720"
     inkscape:window-x="0"
     inkscape:window-y="0"
     inkscape:window-maximized="0"
     inkscape:current-layer="g10" /><g
     id="g10"
     inkscape:groupmode="layer"
     inkscape:label="IntroQG-video-intro-screen"
     transform="matrix(1.3333333,0,0,-1.3333333,0,1440)"
     style="display:inline"><path
       d="M 0,0 H 1920 V 1080 H 0 Z"
       style="fill:#333333;fill-opacity:1;fill-rule:nonzero;stroke:none"
       id="path12"
       inkscape:connector-curvature="0" /><g
       id="g14"><g
         id="g16"
         clip-path="url(#clipPath20)"><g
           id="g22"
           transform="translate(724.7666,802.041)"><path
             d="m 0,0 c 2.039,0.128 3.122,1.529 3.122,3.123 0,2.103 -1.592,3.122 -3.058,3.122 -1.529,0 -3.123,-0.955 -3.123,-3.186 0,-3.25 3.185,-5.927 7.073,-5.927 9.688,0 13.32,14.913 17.844,33.394 4.908,20.138 9.05,40.467 12.492,60.925 2.358,13.574 4.716,26.319 6.883,34.541 0.764,3.122 2.931,11.343 5.415,11.343 1.977,0 3.569,-1.21 3.826,-1.465 -2.104,-0.128 -3.188,-1.53 -3.188,-3.124 0,-2.103 1.594,-3.121 3.059,-3.121 1.53,0 3.122,0.954 3.122,3.185 0,3.441 -3.44,5.927 -6.945,5.927 -4.844,0 -8.413,-6.947 -11.917,-19.947 C 34.413,118.089 25.745,86.098 18.736,44.418 17.078,34.668 15.231,24.026 13.128,15.167 11.981,10.515 9.048,-1.466 3.888,-1.466 1.592,-1.466 0.064,0 0,0"
             style="fill:#fed70a;fill-opacity:1;fill-rule:nonzero;stroke:none"
             id="path24"
             inkscape:connector-curvature="0" /></g><g
           id="g26"
           transform="translate(849.9224,940.7051)"><path
             d="m 0,0 c 0,0.064 0,0.701 -0.828,0.701 -0.956,0 -7.011,-0.573 -8.093,-0.701 -0.511,-0.064 -0.893,-0.383 -0.893,-1.211 0,-0.764 0.574,-0.764 1.53,-0.764 3.058,0 3.186,-0.447 3.186,-1.085 L -5.29,-4.333 -9.114,-19.438 c -1.147,2.358 -2.995,4.08 -5.862,4.08 -7.456,0 -15.359,-9.369 -15.359,-18.674 0,-5.99 3.506,-10.197 8.476,-10.197 1.275,0 4.461,0.255 8.284,4.78 0.511,-2.676 2.741,-4.78 5.8,-4.78 2.23,0 3.696,1.466 4.716,3.507 1.083,2.293 1.913,6.181 1.913,6.308 0,0.637 -0.575,0.637 -0.766,0.637 -0.638,0 -0.702,-0.255 -0.892,-1.147 -1.083,-4.142 -2.23,-7.901 -4.844,-7.901 -1.72,0 -1.911,1.656 -1.911,2.931 0,1.53 0.127,1.975 0.381,3.059 z m -13.256,-35.943 c -0.319,-1.148 -0.319,-1.275 -1.275,-2.359 -2.803,-3.505 -5.415,-4.523 -7.2,-4.523 -3.187,0 -4.08,3.504 -4.08,5.99 0,3.186 2.04,11.025 3.507,13.956 1.975,3.76 4.842,6.118 7.392,6.118 4.142,0 5.034,-5.225 5.034,-5.608 0,-0.383 -0.128,-0.764 -0.192,-1.083 l -3.186,-12.491"
             style="fill:#fed70a;fill-opacity:1;fill-rule:nonzero;stroke:none"
             id="path28"
             inkscape:connector-curvature="0" /></g><g
           id="g30"
           transform="translate(800.2295,869.9512)"><path
             d="M 0,0 H 66.733"
             style="fill:none;stroke:#fed70a;stroke-width:2.54699993;stroke-linecap:butt;stroke-linejoin:miter;stroke-miterlimit:10;stroke-dasharray:none;stroke-opacity:1"
             id="path32"
             inkscape:connector-curvature="0" /></g><g
           id="g34"
           transform="translate(833.1226,853.8052)"><path
             d="m 0,0 c 0,0.064 0,0.701 -0.828,0.701 -0.956,0 -7.011,-0.573 -8.093,-0.701 -0.511,-0.064 -0.893,-0.383 -0.893,-1.211 0,-0.764 0.574,-0.764 1.53,-0.764 3.058,0 3.186,-0.447 3.186,-1.085 L -5.29,-4.333 -9.114,-19.438 c -1.147,2.358 -2.995,4.08 -5.862,4.08 -7.457,0 -15.359,-9.369 -15.359,-18.674 0,-5.99 3.506,-10.197 8.476,-10.197 1.275,0 4.461,0.255 8.284,4.78 0.512,-2.676 2.741,-4.78 5.8,-4.78 2.23,0 3.696,1.466 4.716,3.507 1.083,2.293 1.913,6.181 1.913,6.308 0,0.637 -0.575,0.637 -0.766,0.637 -0.638,0 -0.702,-0.255 -0.892,-1.147 -1.083,-4.142 -2.23,-7.901 -4.844,-7.901 -1.72,0 -1.911,1.656 -1.911,2.931 0,1.53 0.127,1.975 0.381,3.059 z m -13.256,-35.943 c -0.319,-1.148 -0.319,-1.275 -1.275,-2.359 -2.803,-3.505 -5.415,-4.523 -7.2,-4.523 -3.187,0 -4.08,3.504 -4.08,5.99 0,3.186 2.04,11.025 3.507,13.956 1.975,3.76 4.842,6.118 7.392,6.118 4.142,0 5.034,-5.225 5.034,-5.608 0,-0.383 -0.128,-0.764 -0.192,-1.083 l -3.186,-12.491"
             style="fill:#fed70a;fill-opacity:1;fill-rule:nonzero;stroke:none"
             id="path36"
             inkscape:connector-curvature="0" /></g><g
           id="g38"
           transform="translate(864.4106,834.5591)"><path
             d="m 0,0 c 0.255,0.892 0.255,1.019 0.255,1.466 0,1.147 -0.893,1.72 -1.849,1.72 -0.636,0 -1.656,-0.383 -2.23,-1.339 -0.128,-0.319 -0.637,-2.294 -0.892,-3.44 -0.447,-1.658 -0.892,-3.379 -1.275,-5.099 l -2.867,-11.472 c -0.255,-0.954 -2.995,-5.415 -7.201,-5.415 -3.25,0 -3.952,2.803 -3.952,5.161 0,2.932 1.084,6.882 3.25,12.49 1.02,2.614 1.275,3.314 1.275,4.589 0,2.867 -2.039,5.227 -5.225,5.227 -6.055,0 -8.413,-9.241 -8.413,-9.816 0,-0.636 0.638,-0.636 0.765,-0.636 0.637,0 0.701,0.127 1.02,1.147 1.72,5.991 4.269,7.902 6.436,7.902 0.511,0 1.594,0 1.594,-2.039 0,-1.594 -0.638,-3.25 -1.083,-4.461 -2.55,-6.755 -3.697,-10.388 -3.697,-13.383 0,-5.672 4.014,-7.585 7.775,-7.585 2.486,0 4.651,1.085 6.436,2.869 -0.828,-3.314 -1.592,-6.437 -4.142,-9.814 -1.657,-2.167 -4.079,-4.015 -7.01,-4.015 -0.892,0 -3.761,0.19 -4.844,2.676 1.019,0 1.849,0 2.741,0.766 0.638,0.573 1.274,1.401 1.274,2.612 0,1.975 -1.721,2.23 -2.358,2.23 -1.466,0 -3.569,-1.019 -3.569,-4.142 0,-3.186 2.805,-5.544 6.756,-5.544 6.564,0 13.128,5.798 14.913,13 L 0,0"
             style="fill:#fed70a;fill-opacity:1;fill-rule:nonzero;stroke:none"
             id="path40"
             inkscape:connector-curvature="0" /></g><g
           id="g42"
           transform="translate(929.8477,794.1802)"><path
             d="m 0,0 c 0,0.254 -0.126,0.382 -0.254,0.573 -2.358,2.358 -6.628,6.628 -10.897,13.511 -10.261,16.442 -14.913,37.153 -14.913,61.689 0,17.142 2.294,39.256 12.81,58.248 5.034,9.049 10.259,14.275 13.064,17.079 0.19,0.192 0.19,0.318 0.19,0.511 0,0.635 -0.445,0.635 -1.337,0.635 -0.892,0 -1.02,0 -1.975,-0.954 -21.35,-19.438 -28.041,-48.625 -28.041,-75.455 0,-25.045 5.735,-50.283 21.922,-69.337 1.275,-1.466 3.697,-4.079 6.31,-6.372 0.764,-0.766 0.892,-0.766 1.784,-0.766 0.892,0 1.337,0 1.337,0.638"
             style="fill:#fed70a;fill-opacity:1;fill-rule:nonzero;stroke:none"
             id="path44"
             inkscape:connector-curvature="0" /></g><g
           id="g46"
           transform="translate(972.7227,940.7051)"><path
             d="m 0,0 c 0,0.064 0,0.701 -0.828,0.701 -0.956,0 -7.011,-0.573 -8.093,-0.701 -0.511,-0.064 -0.893,-0.383 -0.893,-1.211 0,-0.764 0.574,-0.764 1.53,-0.764 3.057,0 3.186,-0.447 3.186,-1.085 L -5.29,-4.333 -9.114,-19.438 c -1.147,2.358 -2.995,4.08 -5.862,4.08 -7.456,0 -15.36,-9.369 -15.36,-18.674 0,-5.99 3.507,-10.197 8.477,-10.197 1.275,0 4.461,0.255 8.284,4.78 0.511,-2.676 2.741,-4.78 5.8,-4.78 2.23,0 3.696,1.466 4.715,3.507 1.083,2.293 1.914,6.181 1.914,6.308 0,0.637 -0.575,0.637 -0.766,0.637 -0.638,0 -0.702,-0.255 -0.892,-1.147 -1.083,-4.142 -2.23,-7.901 -4.844,-7.901 -1.72,0 -1.912,1.656 -1.912,2.931 0,1.53 0.128,1.975 0.382,3.059 z m -13.256,-35.943 c -0.319,-1.148 -0.319,-1.275 -1.275,-2.359 -2.803,-3.505 -5.415,-4.523 -7.2,-4.523 -3.187,0 -4.08,3.504 -4.08,5.99 0,3.186 2.04,11.025 3.507,13.956 1.975,3.76 4.842,6.118 7.392,6.118 4.141,0 5.034,-5.225 5.034,-5.608 0,-0.383 -0.128,-0.764 -0.192,-1.083 l -3.186,-12.491"
             style="fill:#fed70a;fill-opacity:1;fill-rule:nonzero;stroke:none"
             id="path48"
             inkscape:connector-curvature="0" /></g><g
           id="g50"
           transform="translate(995.3437,900.7471)"><path
             d="m 0,0 c 0.701,-2.613 2.931,-4.271 5.672,-4.271 2.23,0 3.696,1.466 4.715,3.507 1.085,2.293 1.913,6.181 1.913,6.308 0,0.637 -0.574,0.637 -0.764,0.637 -0.639,0 -0.702,-0.255 -0.893,-1.147 C 9.751,1.465 8.54,-2.867 5.864,-2.867 c -1.34,0 -1.977,0.828 -1.977,2.931 0,1.401 0.765,4.397 1.275,6.628 l 1.785,6.883 c 0.19,0.954 0.827,3.376 1.081,4.333 0.32,1.465 0.957,3.887 0.957,4.27 0,1.147 -0.892,1.72 -1.848,1.72 -0.32,0 -1.975,-0.064 -2.485,-2.231 C 3.441,17.015 0.637,5.862 -0.127,2.486 -0.191,2.231 -2.741,-2.867 -7.393,-2.867 c -3.314,0 -3.951,2.867 -3.951,5.225 0,3.568 1.783,8.603 3.442,13.001 0.763,1.911 1.083,2.803 1.083,4.014 0,2.867 -2.039,5.227 -5.225,5.227 -6.056,0 -8.413,-9.241 -8.413,-9.816 0,-0.636 0.638,-0.636 0.765,-0.636 0.636,0 0.701,0.127 1.02,1.147 1.592,5.544 4.014,7.902 6.436,7.902 0.573,0 1.593,-0.064 1.593,-2.103 0,-1.53 -0.701,-3.377 -1.083,-4.333 -2.359,-6.31 -3.696,-10.261 -3.696,-13.383 0,-6.055 4.397,-7.649 7.839,-7.649 4.206,0 6.5,2.869 7.583,4.271"
             style="fill:#fed70a;fill-opacity:1;fill-rule:nonzero;stroke:none"
             id="path52"
             inkscape:connector-curvature="0" /></g><g
           id="g54"
           transform="translate(1024.4883,948.6592)"><path
             d="m 0,0 c 0,1.205 -0.089,1.25 -1.339,1.25 -2.855,-2.811 -6.917,-2.856 -8.747,-2.856 v -1.606 c 1.072,0 4.017,0 6.47,1.25 v -22.76 c 0,-1.473 0,-2.053 -4.462,-2.053 h -1.694 v -1.606 c 0.802,0.045 6.292,0.178 7.942,0.178 1.384,0 7.008,-0.133 7.988,-0.178 v 1.606 H 4.463 C 0,-26.775 0,-26.195 0,-24.722 V 0"
             style="fill:#fed70a;fill-opacity:1;fill-rule:nonzero;stroke:none"
             id="path56"
             inkscape:connector-curvature="0" /></g><g
           id="g58"
           transform="translate(1057.2969,951.7832)"><path
             d="m 0,0 c 0.267,0.581 0.267,0.67 0.267,0.848 0,0.714 -0.58,1.116 -1.071,1.116 -0.759,0 -0.982,-0.536 -1.207,-1.116 l -16.644,-41.545 c -0.267,-0.581 -0.267,-0.67 -0.267,-0.849 0,-0.714 0.579,-1.115 1.071,-1.115 0.758,0 0.982,0.536 1.205,1.115 L 0,0"
             style="fill:#fed70a;fill-opacity:1;fill-rule:nonzero;stroke:none"
             id="path60"
             inkscape:connector-curvature="0" /></g><g
           id="g62"
           transform="translate(1066.4824,923.0894)"><path
             d="m 0,0 c -0.178,-0.58 -0.446,-1.695 -0.446,-1.83 0,-0.981 0.804,-1.428 1.518,-1.428 0.803,0 1.517,0.581 1.741,0.983 0.221,0.402 0.58,1.83 0.802,2.766 0.224,0.848 0.714,2.901 0.982,4.017 0.267,0.981 0.536,1.964 0.759,2.989 0.491,1.83 0.581,2.187 1.873,4.017 1.25,1.784 3.347,4.105 6.694,4.105 2.589,0 2.633,-2.275 2.633,-3.124 0,-2.676 -1.919,-7.631 -2.633,-9.504 -0.489,-1.25 -0.669,-1.652 -0.669,-2.41 0,-2.365 1.963,-3.839 4.24,-3.839 4.462,0 6.426,6.16 6.426,6.828 0,0.58 -0.581,0.58 -0.714,0.58 -0.625,0 -0.67,-0.267 -0.848,-0.758 -1.027,-3.57 -2.946,-5.4 -4.73,-5.4 -0.938,0 -1.116,0.625 -1.116,1.563 0,1.026 0.222,1.606 1.025,3.614 0.536,1.383 2.366,6.114 2.366,8.612 0,4.33 -3.436,5.088 -5.801,5.088 -3.704,0 -6.204,-2.277 -7.54,-4.061 -0.314,3.079 -2.947,4.061 -4.776,4.061 -1.919,0 -2.946,-1.383 -3.527,-2.41 -0.981,-1.651 -1.606,-4.195 -1.606,-4.418 0,-0.58 0.625,-0.58 0.759,-0.58 0.625,0 0.669,0.134 0.983,1.339 0.669,2.633 1.516,4.819 3.256,4.819 1.162,0 1.474,-0.982 1.474,-2.186 0,-0.849 -0.402,-2.499 -0.714,-3.705 C 2.098,8.523 1.651,6.694 1.428,5.712 L 0,0"
             style="fill:#fed70a;fill-opacity:1;fill-rule:nonzero;stroke:none"
             id="path64"
             inkscape:connector-curvature="0" /></g><g
           id="g66"
           transform="translate(939.8267,869.9512)"><path
             d="M 0,0 H 155.936"
             style="fill:none;stroke:#fed70a;stroke-width:2.54699993;stroke-linecap:butt;stroke-linejoin:miter;stroke-miterlimit:10;stroke-dasharray:none;stroke-opacity:1"
             id="path68"
             inkscape:connector-curvature="0" /></g><g
           id="g70"
           transform="translate(1017.3223,853.8052)"><path
             d="m 0,0 c 0,0.064 0,0.701 -0.828,0.701 -0.956,0 -7.011,-0.573 -8.093,-0.701 -0.511,-0.064 -0.892,-0.383 -0.892,-1.211 0,-0.764 0.574,-0.764 1.529,-0.764 3.058,0 3.186,-0.447 3.186,-1.085 L -5.29,-4.333 -9.113,-19.438 c -1.148,2.358 -2.995,4.08 -5.863,4.08 -7.456,0 -15.36,-9.369 -15.36,-18.674 0,-5.99 3.507,-10.197 8.478,-10.197 1.274,0 4.461,0.255 8.283,4.78 0.512,-2.676 2.741,-4.78 5.801,-4.78 2.229,0 3.695,1.466 4.715,3.507 1.083,2.293 1.913,6.181 1.913,6.308 0,0.637 -0.575,0.637 -0.766,0.637 -0.638,0 -0.701,-0.255 -0.892,-1.147 -1.083,-4.142 -2.23,-7.901 -4.843,-7.901 -1.721,0 -1.912,1.656 -1.912,2.931 0,1.53 0.127,1.975 0.381,3.059 z m -13.256,-35.943 c -0.319,-1.148 -0.319,-1.275 -1.274,-2.359 -2.804,-3.505 -5.415,-4.523 -7.2,-4.523 -3.188,0 -4.081,3.504 -4.081,5.99 0,3.186 2.04,11.025 3.507,13.956 1.975,3.76 4.842,6.118 7.392,6.118 4.142,0 5.034,-5.225 5.034,-5.608 0,-0.383 -0.128,-0.764 -0.191,-1.083 l -3.187,-12.491"
             style="fill:#fed70a;fill-opacity:1;fill-rule:nonzero;stroke:none"
             id="path72"
             inkscape:connector-curvature="0" /></g><g
           id="g74"
           transform="translate(1048.6104,834.5591)"><path
             d="m 0,0 c 0.255,0.892 0.255,1.019 0.255,1.466 0,1.147 -0.893,1.72 -1.849,1.72 -0.635,0 -1.656,-0.383 -2.23,-1.339 -0.128,-0.319 -0.637,-2.294 -0.892,-3.44 -0.447,-1.658 -0.891,-3.379 -1.275,-5.099 l -2.866,-11.472 c -0.256,-0.954 -2.996,-5.415 -7.202,-5.415 -3.25,0 -3.952,2.803 -3.952,5.161 0,2.932 1.084,6.882 3.25,12.49 1.02,2.614 1.276,3.314 1.276,4.589 0,2.867 -2.039,5.227 -5.226,5.227 -6.055,0 -8.413,-9.241 -8.413,-9.816 0,-0.636 0.639,-0.636 0.766,-0.636 0.636,0 0.7,0.127 1.019,1.147 1.72,5.991 4.27,7.902 6.437,7.902 0.51,0 1.593,0 1.593,-2.039 0,-1.594 -0.638,-3.25 -1.083,-4.461 -2.549,-6.755 -3.697,-10.388 -3.697,-13.383 0,-5.672 4.014,-7.585 7.776,-7.585 2.485,0 4.65,1.085 6.435,2.869 -0.828,-3.314 -1.592,-6.437 -4.142,-9.814 -1.657,-2.167 -4.079,-4.015 -7.01,-4.015 -0.892,0 -3.761,0.19 -4.844,2.676 1.02,0 1.85,0 2.741,0.766 0.638,0.573 1.275,1.401 1.275,2.612 0,1.975 -1.722,2.23 -2.359,2.23 -1.466,0 -3.569,-1.019 -3.569,-4.142 0,-3.186 2.806,-5.544 6.756,-5.544 6.564,0 13.129,5.798 14.913,13 L 0,0"
             style="fill:#fed70a;fill-opacity:1;fill-rule:nonzero;stroke:none"
             id="path76"
             inkscape:connector-curvature="0" /></g><g
           id="g78"
           transform="translate(1137.0225,869.9531)"><path
             d="m 0,0 c 0,25.045 -5.734,50.281 -21.921,69.336 -1.275,1.466 -3.697,4.08 -6.309,6.373 -0.765,0.764 -0.893,0.764 -1.785,0.764 -0.764,0 -1.338,0 -1.338,-0.635 0,-0.257 0.255,-0.511 0.382,-0.638 2.231,-2.295 6.5,-6.564 10.77,-13.447 10.262,-16.442 14.912,-37.155 14.912,-61.689 0,-17.144 -2.293,-39.258 -12.809,-58.248 -5.034,-9.05 -10.323,-14.339 -13,-17.016 -0.128,-0.191 -0.255,-0.383 -0.255,-0.573 0,-0.638 0.574,-0.638 1.338,-0.638 0.892,0 1.02,0 1.975,0.956 C -6.689,-56.017 0,-26.83 0,0"
             style="fill:#fed70a;fill-opacity:1;fill-rule:nonzero;stroke:none"
             id="path80"
             inkscape:connector-curvature="0" /></g><g
           id="g82"
           transform="translate(1211.8193,874.8174)"><path
             d="m 0,0 c 0.957,0 2.167,0 2.167,1.275 0,1.275 -1.21,1.275 -2.103,1.275 h -38.172 c -0.893,0 -2.104,0 -2.104,-1.275 C -40.212,0 -39.001,0 -38.045,0 Z m 0.064,-12.362 c 0.893,0 2.103,0 2.103,1.273 0,1.275 -1.21,1.275 -2.167,1.275 h -38.045 c -0.956,0 -2.167,0 -2.167,-1.275 0,-1.273 1.211,-1.273 2.104,-1.273 H 0.064"
             style="fill:#fed70a;fill-opacity:1;fill-rule:nonzero;stroke:none"
             id="path84"
             inkscape:connector-curvature="0" /></g><g
           id="g86"
           transform="translate(1277.3359,868.6362)"><path
             d="M 0,0 C 1.084,0 2.23,0 2.23,1.275 2.23,2.548 1.084,2.548 0,2.548 h -34.478 c -1.084,0 -2.23,0 -2.23,-1.273 C -36.708,0 -35.562,0 -34.478,0 H 0"
             style="fill:#fed70a;fill-opacity:1;fill-rule:nonzero;stroke:none"
             id="path88"
             inkscape:connector-curvature="0" /></g><g
           id="g90"
           transform="translate(1308.709,878.0674)"><path
             d="m 0,0 c -1.147,2.358 -2.995,4.08 -5.862,4.08 -7.456,0 -15.361,-9.369 -15.361,-18.674 0,-5.99 3.507,-10.197 8.478,-10.197 1.274,0 4.461,0.255 8.283,4.78 0.512,-2.676 2.741,-4.78 5.801,-4.78 2.229,0 3.695,1.466 4.716,3.507 1.083,2.293 1.913,6.181 1.913,6.308 0,0.637 -0.575,0.637 -0.767,0.637 -0.638,0 -0.701,-0.255 -0.891,-1.147 -1.083,-4.142 -2.231,-7.901 -4.844,-7.901 -1.721,0 -1.911,1.656 -1.911,2.931 0,1.401 0.127,1.911 0.828,4.715 0.702,2.677 0.828,3.315 1.401,5.736 l 2.295,8.922 C 4.524,0.702 4.524,0.828 4.524,1.084 4.524,2.167 3.761,2.805 2.677,2.805 1.146,2.805 0.192,1.403 0,0 m -4.143,-16.505 c -0.319,-1.148 -0.319,-1.275 -1.274,-2.359 -2.804,-3.505 -5.415,-4.523 -7.2,-4.523 -3.188,0 -4.08,3.504 -4.08,5.99 0,3.186 2.04,11.025 3.507,13.956 1.974,3.76 4.841,6.118 7.391,6.118 4.143,0 5.034,-5.225 5.034,-5.608 0,-0.383 -0.128,-0.764 -0.191,-1.083 l -3.187,-12.491"
             style="fill:#fed70a;fill-opacity:1;fill-rule:nonzero;stroke:none"
             id="path92"
             inkscape:connector-curvature="0" /></g><g
           id="g94"
           transform="translate(1333.5889,908.7593)"><path
             d="m 0,0 c 0,1.205 -0.089,1.25 -1.339,1.25 -2.856,-2.811 -6.917,-2.856 -8.747,-2.856 v -1.606 c 1.071,0 4.016,0 6.47,1.25 v -22.76 c 0,-1.473 0,-2.053 -4.462,-2.053 h -1.695 v -1.606 c 0.802,0.045 6.292,0.178 7.943,0.178 1.383,0 7.007,-0.133 7.987,-0.178 v 1.606 H 4.463 C 0,-26.775 0,-26.195 0,-24.722 V 0"
             style="fill:#fed70a;fill-opacity:1;fill-rule:nonzero;stroke:none"
             id="path96"
             inkscape:connector-curvature="0" /></g><g
           id="g98"
           transform="translate(1366.3965,911.8833)"><path
             d="m 0,0 c 0.267,0.581 0.267,0.67 0.267,0.848 0,0.714 -0.579,1.116 -1.07,1.116 -0.759,0 -0.983,-0.536 -1.207,-1.116 l -16.645,-41.545 c -0.267,-0.581 -0.267,-0.67 -0.267,-0.849 0,-0.714 0.58,-1.115 1.072,-1.115 0.758,0 0.981,0.536 1.205,1.115 L 0,0"
             style="fill:#fed70a;fill-opacity:1;fill-rule:nonzero;stroke:none"
             id="path100"
             inkscape:connector-curvature="0" /></g><g
           id="g102"
           transform="translate(1375.6826,883.189)"><path
             d="m 0,0 c -0.178,-0.58 -0.446,-1.695 -0.446,-1.83 0,-0.981 0.804,-1.428 1.518,-1.428 0.803,0 1.517,0.581 1.74,0.983 0.222,0.402 0.58,1.83 0.803,2.766 0.224,0.848 0.714,2.901 0.982,4.017 0.267,0.981 0.536,1.964 0.758,2.989 0.492,1.83 0.581,2.187 1.874,4.017 1.25,1.784 3.347,4.105 6.694,4.105 2.589,0 2.633,-2.275 2.633,-3.124 0,-2.676 -1.919,-7.631 -2.633,-9.504 -0.49,-1.25 -0.669,-1.652 -0.669,-2.41 0,-2.365 1.963,-3.839 4.24,-3.839 4.462,0 6.426,6.16 6.426,6.828 0,0.58 -0.581,0.58 -0.714,0.58 -0.625,0 -0.67,-0.267 -0.848,-0.758 -1.027,-3.57 -2.946,-5.4 -4.73,-5.4 -0.939,0 -1.116,0.625 -1.116,1.563 0,1.026 0.222,1.606 1.025,3.614 0.536,1.383 2.366,6.114 2.366,8.612 0,4.33 -3.436,5.088 -5.802,5.088 -3.704,0 -6.204,-2.277 -7.54,-4.061 -0.313,3.079 -2.946,4.061 -4.775,4.061 -1.919,0 -2.946,-1.383 -3.527,-2.41 -0.981,-1.651 -1.606,-4.195 -1.606,-4.418 0,-0.58 0.625,-0.58 0.759,-0.58 0.625,0 0.669,0.134 0.982,1.339 0.669,2.633 1.517,4.819 3.257,4.819 1.161,0 1.474,-0.982 1.474,-2.186 0,-0.849 -0.402,-2.499 -0.714,-3.705 C 2.098,8.523 1.651,6.694 1.428,5.712 L 0,0"
             style="fill:#fed70a;fill-opacity:1;fill-rule:nonzero;stroke:none"
             id="path104"
             inkscape:connector-curvature="0" /></g><g
           id="g106"
           transform="translate(1422.167,802.041)"><path
             d="m 0,0 c 2.038,0.128 3.121,1.529 3.121,3.123 0,2.103 -1.592,3.122 -3.058,3.122 -1.529,0 -3.123,-0.955 -3.123,-3.186 0,-3.25 3.187,-5.927 7.074,-5.927 9.687,0 13.321,14.913 17.843,33.394 4.909,20.138 9.05,40.467 12.493,60.925 2.358,13.574 4.715,26.319 6.882,34.541 0.764,3.122 2.931,11.343 5.416,11.343 1.977,0 3.569,-1.21 3.826,-1.465 -2.105,-0.128 -3.189,-1.53 -3.189,-3.124 0,-2.103 1.595,-3.121 3.06,-3.121 1.53,0 3.122,0.954 3.122,3.185 0,3.441 -3.441,5.927 -6.946,5.927 -4.843,0 -8.412,-6.947 -11.917,-19.947 C 34.412,118.089 25.744,86.098 18.735,44.418 17.077,34.668 15.23,24.026 13.128,15.167 11.98,10.515 9.049,-1.466 3.888,-1.466 1.592,-1.466 0.063,0 0,0"
             style="fill:#fed70a;fill-opacity:1;fill-rule:nonzero;stroke:none"
             id="path108"
             inkscape:connector-curvature="0" /></g><g
           id="g110"
           transform="translate(1500.4053,889.4033)"><path
             d="m 0,0 c -0.509,-2.167 -0.636,-2.612 -3.439,-2.612 -0.767,0 -1.466,0 -1.466,-1.211 0,-0.51 0.318,-0.766 0.827,-0.766 1.721,0 3.569,0.192 5.353,0.192 2.103,0 4.271,-0.192 6.31,-0.192 0.318,0 1.146,0 1.146,1.275 0,0.702 -0.636,0.702 -1.529,0.702 -3.185,0 -3.185,0.445 -3.185,1.018 0,0.766 2.675,11.153 3.122,12.747 0.828,-1.848 2.613,-4.08 5.863,-4.08 7.393,0 15.358,9.305 15.358,18.674 0,5.991 -3.632,10.197 -8.474,10.197 -3.189,0 -6.246,-2.296 -8.35,-4.78 -0.637,3.441 -3.378,4.78 -5.736,4.78 -2.931,0 -4.142,-2.486 -4.715,-3.633 -1.147,-2.167 -1.977,-5.991 -1.977,-6.183 0,-0.636 0.638,-0.636 0.766,-0.636 0.638,0 0.7,0.063 1.082,1.466 1.085,4.523 2.358,7.583 4.654,7.583 1.082,0 1.975,-0.51 1.975,-2.932 0,-1.465 -0.19,-2.167 -0.446,-3.25 z m 11.217,27.658 c 0.446,1.722 2.169,3.506 3.314,4.461 2.231,1.976 4.079,2.422 5.161,2.422 2.55,0 4.08,-2.23 4.08,-5.991 0,-3.759 -2.103,-11.087 -3.25,-13.509 -2.167,-4.461 -5.226,-6.564 -7.584,-6.564 -4.207,0 -5.035,5.289 -5.035,5.671 0,0.127 0,0.255 0.192,1.019 l 3.122,12.491"
             style="fill:#fed70a;fill-opacity:1;fill-rule:nonzero;stroke:none"
             id="path112"
             inkscape:connector-curvature="0" /></g><g
           id="g114"
           transform="translate(1544.5889,915.959)"><path
             d="m 0,0 c 0,1.205 -0.089,1.25 -1.339,1.25 -2.856,-2.811 -6.917,-2.856 -8.747,-2.856 v -1.606 c 1.071,0 4.016,0 6.47,1.25 v -22.76 c 0,-1.473 0,-2.053 -4.462,-2.053 h -1.695 v -1.606 c 0.802,0.045 6.292,0.178 7.943,0.178 1.383,0 7.007,-0.133 7.987,-0.178 v 1.606 H 4.463 C 0,-26.775 0,-26.195 0,-24.722 V 0"
             style="fill:#fed70a;fill-opacity:1;fill-rule:nonzero;stroke:none"
             id="path116"
             inkscape:connector-curvature="0" /></g><g
           id="g118"
           transform="translate(1614.4355,911.8364)"><path
             d="M 0,0 C 1.084,0 2.231,0 2.231,1.275 2.231,2.548 1.084,2.548 0,2.548 h -34.477 c -1.084,0 -2.231,0 -2.231,-1.273 C -36.708,0 -35.561,0 -34.477,0 H 0"
             style="fill:#fed70a;fill-opacity:1;fill-rule:nonzero;stroke:none"
             id="path120"
             inkscape:connector-curvature="0" /></g><g
           id="g122"
           transform="translate(1639.0059,889.4033)"><path
             d="m 0,0 c -0.51,-2.167 -0.637,-2.612 -3.44,-2.612 -0.766,0 -1.466,0 -1.466,-1.211 0,-0.51 0.319,-0.766 0.828,-0.766 1.72,0 3.568,0.192 5.352,0.192 2.104,0 4.272,-0.192 6.311,-0.192 0.317,0 1.145,0 1.145,1.275 0,0.702 -0.636,0.702 -1.528,0.702 -3.186,0 -3.186,0.445 -3.186,1.018 0,0.766 2.675,11.153 3.122,12.747 0.829,-1.848 2.614,-4.08 5.864,-4.08 7.392,0 15.357,9.305 15.357,18.674 0,5.991 -3.632,10.197 -8.474,10.197 -3.189,0 -6.246,-2.296 -8.349,-4.78 -0.638,3.441 -3.379,4.78 -5.736,4.78 -2.931,0 -4.143,-2.486 -4.715,-3.633 -1.147,-2.167 -1.978,-5.991 -1.978,-6.183 0,-0.636 0.639,-0.636 0.767,-0.636 0.637,0 0.699,0.063 1.082,1.466 1.085,4.523 2.357,7.583 4.653,7.583 1.082,0 1.976,-0.51 1.976,-2.932 0,-1.465 -0.191,-2.167 -0.447,-3.25 z m 11.217,27.658 c 0.446,1.722 2.168,3.506 3.313,4.461 2.231,1.976 4.079,2.422 5.161,2.422 2.55,0 4.08,-2.23 4.08,-5.991 0,-3.759 -2.102,-11.087 -3.25,-13.509 -2.167,-4.461 -5.225,-6.564 -7.583,-6.564 -4.208,0 -5.036,5.289 -5.036,5.671 0,0.127 0,0.255 0.192,1.019 l 3.123,12.491"
             style="fill:#fed70a;fill-opacity:1;fill-rule:nonzero;stroke:none"
             id="path124"
             inkscape:connector-curvature="0" /></g><g
           id="g126"
           transform="translate(1691.2656,901.814)"><path
             d="m 0,0 c 0,4.908 -0.58,8.434 -2.633,11.558 -1.383,2.053 -4.15,3.837 -7.721,3.837 -10.353,0 -10.353,-12.183 -10.353,-15.395 0,-3.214 0,-15.128 10.353,-15.128 C 0,-15.128 0,-3.214 0,0 m -10.354,-13.88 c -2.053,0 -4.775,1.207 -5.667,4.866 -0.625,2.633 -0.625,6.292 -0.625,9.594 0,3.257 0,6.648 0.671,9.103 0.936,3.526 3.792,4.462 5.621,4.462 2.41,0 4.73,-1.472 5.535,-4.061 0.714,-2.409 0.757,-5.622 0.757,-9.504 0,-3.302 0,-6.605 -0.579,-9.416 -0.892,-4.061 -3.928,-5.044 -5.713,-5.044"
             style="fill:#fed70a;fill-opacity:1;fill-rule:nonzero;stroke:none"
             id="path128"
             inkscape:connector-curvature="0" /></g><g
           id="g130"
           transform="translate(1497.5732,869.9512)"><path
             d="M 0,0 H 199.296"
             style="fill:none;stroke:#fed70a;stroke-width:2.54699993;stroke-linecap:butt;stroke-linejoin:miter;stroke-miterlimit:10;stroke-dasharray:none;stroke-opacity:1"
             id="path132"
             inkscape:connector-curvature="0" /></g><g
           id="g134"
           transform="translate(1599.3721,848.834)"><path
             d="m 0,0 c 0.574,2.294 0.767,2.996 6.756,2.996 1.913,0 2.422,0 2.422,1.211 0,0.764 -0.7,0.764 -1.02,0.764 -2.102,0 -7.329,-0.191 -9.432,-0.191 -1.912,0 -6.565,0.191 -8.476,0.191 -0.445,0 -1.211,0 -1.211,-1.275 0,-0.7 0.574,-0.7 1.785,-0.7 0.126,0 1.337,0 2.422,-0.129 1.148,-0.126 1.721,-0.19 1.721,-1.018 0,-0.257 -0.065,-0.447 -0.255,-1.211 l -8.54,-34.224 c -0.637,-2.484 -0.765,-2.995 -5.8,-2.995 -1.083,0 -1.72,0 -1.72,-1.273 0,-0.702 0.574,-0.702 1.72,-0.702 H 9.88 c 1.528,0 1.593,0 1.974,1.083 l 5.035,13.765 c 0.256,0.702 0.256,0.829 0.256,0.893 0,0.254 -0.193,0.701 -0.765,0.701 -0.574,0 -0.639,-0.319 -1.083,-1.339 C 13.13,-29.315 10.324,-36.581 -0.7,-36.581 h -5.989 c -0.892,0 -1.022,0 -1.404,0.064 -0.637,0.064 -0.828,0.128 -0.828,0.638 0,0.19 0,0.318 0.318,1.465 L 0,0"
             style="fill:#fed70a;fill-opacity:1;fill-rule:nonzero;stroke:none"
             id="path136"
             inkscape:connector-curvature="0" /></g><g
           id="g138"
           transform="translate(1019.6221,754.8052)"><path
             d="m 0,0 c 0,0.064 0,0.701 -0.827,0.701 -0.956,0 -7.012,-0.573 -8.094,-0.701 -0.511,-0.064 -0.892,-0.383 -0.892,-1.211 0,-0.764 0.574,-0.764 1.53,-0.764 3.057,0 3.185,-0.447 3.185,-1.085 l -0.191,-1.273 -3.824,-15.105 c -1.148,2.358 -2.995,4.08 -5.863,4.08 -7.456,0 -15.36,-9.369 -15.36,-18.674 0,-5.99 3.508,-10.197 8.478,-10.197 1.274,0 4.461,0.255 8.284,4.78 0.511,-2.676 2.74,-4.78 5.8,-4.78 2.229,0 3.696,1.466 4.715,3.507 1.083,2.293 1.913,6.181 1.913,6.308 0,0.637 -0.575,0.637 -0.765,0.637 -0.639,0 -0.702,-0.255 -0.893,-1.147 -1.083,-4.142 -2.229,-7.901 -4.843,-7.901 -1.72,0 -1.912,1.656 -1.912,2.931 0,1.53 0.127,1.975 0.381,3.059 z m -13.256,-35.943 c -0.318,-1.148 -0.318,-1.275 -1.274,-2.359 -2.804,-3.505 -5.415,-4.523 -7.2,-4.523 -3.188,0 -4.081,3.504 -4.081,5.99 0,3.186 2.04,11.025 3.507,13.956 1.976,3.76 4.842,6.118 7.393,6.118 4.141,0 5.033,-5.225 5.033,-5.608 0,-0.383 -0.128,-0.764 -0.191,-1.083 l -3.187,-12.491"
             style="fill:#fed70a;fill-opacity:1;fill-rule:nonzero;stroke:none"
             id="path140"
             inkscape:connector-curvature="0" /></g><g
           id="g142"
           transform="translate(1042.2432,714.8472)"><path
             d="m 0,0 c 0.701,-2.613 2.932,-4.271 5.673,-4.271 2.23,0 3.695,1.466 4.715,3.507 1.085,2.293 1.913,6.181 1.913,6.308 0,0.637 -0.574,0.637 -0.765,0.637 -0.638,0 -0.702,-0.255 -0.892,-1.147 -0.893,-3.569 -2.104,-7.901 -4.78,-7.901 -1.339,0 -1.976,0.828 -1.976,2.931 0,1.401 0.765,4.397 1.274,6.628 l 1.785,6.883 c 0.191,0.954 0.828,3.376 1.082,4.333 0.32,1.465 0.957,3.887 0.957,4.27 0,1.147 -0.892,1.72 -1.848,1.72 -0.32,0 -1.976,-0.064 -2.485,-2.231 C 3.442,17.015 0.638,5.862 -0.127,2.486 -0.19,2.231 -2.74,-2.867 -7.392,-2.867 c -3.315,0 -3.952,2.867 -3.952,5.225 0,3.568 1.784,8.603 3.443,13.001 0.763,1.911 1.083,2.803 1.083,4.014 0,2.867 -2.039,5.227 -5.226,5.227 -6.055,0 -8.413,-9.241 -8.413,-9.816 0,-0.636 0.639,-0.636 0.766,-0.636 0.636,0 0.701,0.127 1.019,1.147 1.592,5.544 4.015,7.902 6.437,7.902 0.572,0 1.593,-0.064 1.593,-2.103 0,-1.53 -0.702,-3.377 -1.083,-4.333 -2.36,-6.31 -3.697,-10.261 -3.697,-13.383 0,-6.055 4.398,-7.649 7.839,-7.649 4.206,0 6.5,2.869 7.583,4.271"
             style="fill:#fed70a;fill-opacity:1;fill-rule:nonzero;stroke:none"
             id="path144"
             inkscape:connector-curvature="0" /></g><g
           id="g146"
           transform="translate(1071.3887,762.8594)"><path
             d="m 0,0 c 0,1.205 -0.089,1.25 -1.339,1.25 -2.856,-2.811 -6.917,-2.856 -8.747,-2.856 v -1.606 c 1.072,0 4.016,0 6.47,1.25 v -22.76 c 0,-1.473 0,-2.053 -4.462,-2.053 h -1.695 v -1.606 c 0.803,0.045 6.292,0.178 7.943,0.178 1.383,0 7.007,-0.133 7.988,-0.178 v 1.606 H 4.463 C 0,-26.775 0,-26.195 0,-24.722 V 0"
             style="fill:#fed70a;fill-opacity:1;fill-rule:nonzero;stroke:none"
             id="path148"
             inkscape:connector-curvature="0" /></g><g
           id="g150"
           transform="translate(1104.1963,765.9834)"><path
             d="m 0,0 c 0.268,0.581 0.268,0.67 0.268,0.848 0,0.714 -0.58,1.116 -1.071,1.116 -0.759,0 -0.983,-0.536 -1.207,-1.116 l -16.644,-41.545 c -0.268,-0.581 -0.268,-0.67 -0.268,-0.849 0,-0.714 0.58,-1.115 1.072,-1.115 0.758,0 0.981,0.536 1.205,1.115 L 0,0"
             style="fill:#fed70a;fill-opacity:1;fill-rule:nonzero;stroke:none"
             id="path152"
             inkscape:connector-curvature="0" /></g><g
           id="g154"
           transform="translate(1113.4824,737.2891)"><path
             d="m 0,0 c -0.178,-0.58 -0.446,-1.695 -0.446,-1.83 0,-0.981 0.804,-1.428 1.518,-1.428 0.803,0 1.517,0.581 1.741,0.983 0.221,0.402 0.58,1.83 0.802,2.766 0.224,0.848 0.714,2.901 0.982,4.017 0.267,0.981 0.536,1.964 0.759,2.989 0.491,1.83 0.581,2.187 1.873,4.017 1.25,1.784 3.347,4.105 6.694,4.105 2.589,0 2.633,-2.275 2.633,-3.124 0,-2.676 -1.919,-7.631 -2.633,-9.504 -0.489,-1.25 -0.669,-1.652 -0.669,-2.41 0,-2.365 1.963,-3.839 4.24,-3.839 4.462,0 6.426,6.16 6.426,6.828 0,0.58 -0.581,0.58 -0.714,0.58 -0.625,0 -0.67,-0.267 -0.848,-0.758 -1.027,-3.57 -2.946,-5.4 -4.73,-5.4 -0.938,0 -1.116,0.625 -1.116,1.563 0,1.026 0.222,1.606 1.025,3.614 0.536,1.383 2.366,6.114 2.366,8.612 0,4.33 -3.436,5.088 -5.801,5.088 -3.704,0 -6.204,-2.277 -7.54,-4.061 -0.314,3.079 -2.947,4.061 -4.776,4.061 -1.919,0 -2.946,-1.383 -3.527,-2.41 -0.981,-1.651 -1.606,-4.195 -1.606,-4.418 0,-0.58 0.625,-0.58 0.759,-0.58 0.625,0 0.669,0.134 0.983,1.339 0.669,2.633 1.516,4.819 3.256,4.819 1.162,0 1.474,-0.982 1.474,-2.186 0,-0.849 -0.402,-2.499 -0.714,-3.705 C 2.098,8.523 1.651,6.694 1.428,5.712 L 0,0"
             style="fill:#fed70a;fill-opacity:1;fill-rule:nonzero;stroke:none"
             id="path156"
             inkscape:connector-curvature="0" /></g><g
           id="g158"
           transform="translate(986.7646,684.1211)"><path
             d="M 0,0 H 155.936"
             style="fill:none;stroke:#fed70a;stroke-width:2.54699993;stroke-linecap:butt;stroke-linejoin:miter;stroke-miterlimit:10;stroke-dasharray:none;stroke-opacity:1"
             id="path160"
             inkscape:connector-curvature="0" /></g><g
           id="g162"
           transform="translate(1064.2227,668.0054)"><path
             d="m 0,0 c 0,0.064 0,0.701 -0.828,0.701 -0.956,0 -7.011,-0.573 -8.093,-0.701 -0.511,-0.064 -0.893,-0.383 -0.893,-1.211 0,-0.764 0.574,-0.764 1.53,-0.764 3.057,0 3.186,-0.447 3.186,-1.085 L -5.29,-4.333 -9.114,-19.438 c -1.147,2.358 -2.995,4.08 -5.863,4.08 -7.455,0 -15.359,-9.369 -15.359,-18.674 0,-5.99 3.507,-10.197 8.477,-10.197 1.275,0 4.461,0.255 8.284,4.78 0.511,-2.676 2.741,-4.78 5.8,-4.78 2.23,0 3.696,1.466 4.715,3.507 1.083,2.293 1.914,6.181 1.914,6.308 0,0.637 -0.575,0.637 -0.766,0.637 -0.638,0 -0.702,-0.255 -0.892,-1.147 -1.083,-4.142 -2.23,-7.901 -4.844,-7.901 -1.72,0 -1.912,1.656 -1.912,2.931 0,1.53 0.128,1.975 0.382,3.059 z m -13.256,-35.943 c -0.319,-1.148 -0.319,-1.275 -1.275,-2.359 -2.803,-3.505 -5.415,-4.523 -7.2,-4.523 -3.187,0 -4.081,3.504 -4.081,5.99 0,3.186 2.041,11.025 3.508,13.956 1.975,3.76 4.842,6.118 7.392,6.118 4.141,0 5.034,-5.225 5.034,-5.608 0,-0.383 -0.128,-0.764 -0.192,-1.083 l -3.186,-12.491"
             style="fill:#fed70a;fill-opacity:1;fill-rule:nonzero;stroke:none"
             id="path164"
             inkscape:connector-curvature="0" /></g><g
           id="g166"
           transform="translate(1095.5107,648.7593)"><path
             d="m 0,0 c 0.255,0.892 0.255,1.019 0.255,1.466 0,1.147 -0.894,1.72 -1.849,1.72 -0.636,0 -1.656,-0.383 -2.23,-1.339 -0.128,-0.319 -0.637,-2.294 -0.892,-3.44 -0.447,-1.658 -0.892,-3.379 -1.275,-5.099 l -2.867,-11.472 c -0.255,-0.954 -2.996,-5.415 -7.202,-5.415 -3.25,0 -3.951,2.803 -3.951,5.161 0,2.932 1.084,6.882 3.25,12.49 1.02,2.614 1.275,3.314 1.275,4.589 0,2.867 -2.039,5.227 -5.225,5.227 -6.056,0 -8.413,-9.241 -8.413,-9.816 0,-0.636 0.638,-0.636 0.765,-0.636 0.636,0 0.701,0.127 1.02,1.147 1.72,5.991 4.269,7.902 6.436,7.902 0.51,0 1.593,0 1.593,-2.039 0,-1.594 -0.637,-3.25 -1.083,-4.461 -2.549,-6.755 -3.696,-10.388 -3.696,-13.383 0,-5.672 4.014,-7.585 7.775,-7.585 2.486,0 4.651,1.085 6.436,2.869 -0.828,-3.314 -1.592,-6.437 -4.143,-9.814 -1.656,-2.167 -4.079,-4.015 -7.009,-4.015 -0.892,0 -3.761,0.19 -4.844,2.676 1.019,0 1.849,0 2.741,0.766 0.638,0.573 1.274,1.401 1.274,2.612 0,1.975 -1.721,2.23 -2.358,2.23 -1.467,0 -3.569,-1.019 -3.569,-4.142 0,-3.186 2.805,-5.544 6.756,-5.544 6.564,0 13.128,5.798 14.913,13 L 0,0"
             style="fill:#fed70a;fill-opacity:1;fill-rule:nonzero;stroke:none"
             id="path168"
             inkscape:connector-curvature="0" /></g><g
           id="g170"
           transform="translate(1211.8193,689.0171)"><path
             d="m 0,0 c 0.957,0 2.167,0 2.167,1.275 0,1.275 -1.21,1.275 -2.103,1.275 h -38.172 c -0.893,0 -2.104,0 -2.104,-1.275 C -40.212,0 -39.001,0 -38.045,0 Z m 0.064,-12.362 c 0.893,0 2.103,0 2.103,1.273 0,1.275 -1.21,1.275 -2.167,1.275 h -38.045 c -0.956,0 -2.167,0 -2.167,-1.275 0,-1.273 1.211,-1.273 2.104,-1.273 H 0.064"
             style="fill:#fed70a;fill-opacity:1;fill-rule:nonzero;stroke:none"
             id="path172"
             inkscape:connector-curvature="0" /></g><g
           id="g174"
           transform="translate(1277.3359,682.8359)"><path
             d="M 0,0 C 1.084,0 2.23,0 2.23,1.275 2.23,2.548 1.084,2.548 0,2.548 h -34.478 c -1.084,0 -2.23,0 -2.23,-1.273 C -36.708,0 -35.562,0 -34.478,0 H 0"
             style="fill:#fed70a;fill-opacity:1;fill-rule:nonzero;stroke:none"
             id="path176"
             inkscape:connector-curvature="0" /></g><g
           id="g178"
           transform="translate(1308.709,692.2671)"><path
             d="m 0,0 c -1.147,2.358 -2.995,4.08 -5.862,4.08 -7.456,0 -15.361,-9.369 -15.361,-18.674 0,-5.99 3.507,-10.197 8.478,-10.197 1.274,0 4.461,0.255 8.283,4.78 0.512,-2.676 2.741,-4.78 5.801,-4.78 2.229,0 3.695,1.466 4.716,3.507 1.083,2.293 1.913,6.181 1.913,6.308 0,0.637 -0.575,0.637 -0.767,0.637 -0.638,0 -0.701,-0.255 -0.891,-1.147 -1.083,-4.142 -2.231,-7.901 -4.844,-7.901 -1.721,0 -1.911,1.656 -1.911,2.931 0,1.401 0.127,1.911 0.828,4.715 0.702,2.677 0.828,3.315 1.401,5.736 l 2.295,8.922 C 4.524,0.702 4.524,0.828 4.524,1.084 4.524,2.167 3.761,2.805 2.677,2.805 1.146,2.805 0.192,1.403 0,0 m -4.143,-16.505 c -0.319,-1.148 -0.319,-1.275 -1.274,-2.359 -2.804,-3.505 -5.415,-4.523 -7.2,-4.523 -3.188,0 -4.08,3.504 -4.08,5.99 0,3.186 2.04,11.025 3.507,13.956 1.974,3.76 4.841,6.118 7.391,6.118 4.143,0 5.034,-5.225 5.034,-5.608 0,-0.383 -0.128,-0.764 -0.191,-1.083 l -3.187,-12.491"
             style="fill:#fed70a;fill-opacity:1;fill-rule:nonzero;stroke:none"
             id="path180"
             inkscape:connector-curvature="0" /></g><g
           id="g182"
           transform="translate(1333.5889,722.8594)"><path
             d="m 0,0 c 0,1.205 -0.089,1.25 -1.339,1.25 -2.856,-2.811 -6.917,-2.856 -8.747,-2.856 v -1.606 c 1.071,0 4.016,0 6.47,1.25 v -22.76 c 0,-1.473 0,-2.053 -4.462,-2.053 h -1.695 v -1.606 c 0.802,0.045 6.292,0.178 7.943,0.178 1.383,0 7.007,-0.133 7.987,-0.178 v 1.606 H 4.463 C 0,-26.775 0,-26.195 0,-24.722 V 0"
             style="fill:#fed70a;fill-opacity:1;fill-rule:nonzero;stroke:none"
             id="path184"
             inkscape:connector-curvature="0" /></g><g
           id="g186"
           transform="translate(1366.3965,725.9834)"><path
             d="m 0,0 c 0.267,0.581 0.267,0.67 0.267,0.848 0,0.714 -0.579,1.116 -1.07,1.116 -0.759,0 -0.983,-0.536 -1.207,-1.116 l -16.645,-41.545 c -0.267,-0.581 -0.267,-0.67 -0.267,-0.849 0,-0.714 0.58,-1.115 1.072,-1.115 0.758,0 0.981,0.536 1.205,1.115 L 0,0"
             style="fill:#fed70a;fill-opacity:1;fill-rule:nonzero;stroke:none"
             id="path188"
             inkscape:connector-curvature="0" /></g><g
           id="g190"
           transform="translate(1375.6826,697.2891)"><path
             d="m 0,0 c -0.178,-0.58 -0.446,-1.695 -0.446,-1.83 0,-0.981 0.804,-1.428 1.518,-1.428 0.803,0 1.517,0.581 1.74,0.983 0.222,0.402 0.58,1.83 0.803,2.766 0.224,0.848 0.714,2.901 0.982,4.017 0.267,0.981 0.536,1.964 0.758,2.989 0.492,1.83 0.581,2.187 1.874,4.017 1.25,1.784 3.347,4.105 6.694,4.105 2.589,0 2.633,-2.275 2.633,-3.124 0,-2.676 -1.919,-7.631 -2.633,-9.504 -0.49,-1.25 -0.669,-1.652 -0.669,-2.41 0,-2.365 1.963,-3.839 4.24,-3.839 4.462,0 6.426,6.16 6.426,6.828 0,0.58 -0.581,0.58 -0.714,0.58 -0.625,0 -0.67,-0.267 -0.848,-0.758 -1.027,-3.57 -2.946,-5.4 -4.73,-5.4 -0.939,0 -1.116,0.625 -1.116,1.563 0,1.026 0.222,1.606 1.025,3.614 0.536,1.383 2.366,6.114 2.366,8.612 0,4.33 -3.436,5.088 -5.802,5.088 -3.704,0 -6.204,-2.277 -7.54,-4.061 -0.313,3.079 -2.946,4.061 -4.775,4.061 -1.919,0 -2.946,-1.383 -3.527,-2.41 -0.981,-1.651 -1.606,-4.195 -1.606,-4.418 0,-0.58 0.625,-0.58 0.759,-0.58 0.625,0 0.669,0.134 0.982,1.339 0.669,2.633 1.517,4.819 3.257,4.819 1.161,0 1.474,-0.982 1.474,-2.186 0,-0.849 -0.402,-2.499 -0.714,-3.705 C 2.098,8.523 1.651,6.694 1.428,5.712 L 0,0"
             style="fill:#fed70a;fill-opacity:1;fill-rule:nonzero;stroke:none"
             id="path192"
             inkscape:connector-curvature="0" /></g><g
           id="g194"
           transform="translate(1415.4053,703.5034)"><path
             d="m 0,0 c -0.509,-2.167 -0.636,-2.612 -3.439,-2.612 -0.767,0 -1.466,0 -1.466,-1.211 0,-0.51 0.318,-0.766 0.827,-0.766 1.721,0 3.569,0.192 5.353,0.192 2.103,0 4.271,-0.192 6.31,-0.192 0.318,0 1.146,0 1.146,1.275 0,0.702 -0.636,0.702 -1.529,0.702 -3.185,0 -3.185,0.445 -3.185,1.018 0,0.766 2.675,11.153 3.122,12.747 0.828,-1.848 2.613,-4.08 5.863,-4.08 7.393,0 15.358,9.305 15.358,18.674 0,5.991 -3.632,10.197 -8.474,10.197 -3.189,0 -6.246,-2.296 -8.35,-4.78 -0.637,3.441 -3.378,4.78 -5.736,4.78 -2.931,0 -4.142,-2.486 -4.715,-3.633 -1.147,-2.167 -1.977,-5.991 -1.977,-6.183 0,-0.636 0.638,-0.636 0.766,-0.636 0.638,0 0.7,0.063 1.082,1.466 1.085,4.523 2.358,7.583 4.654,7.583 1.082,0 1.975,-0.51 1.975,-2.932 0,-1.465 -0.19,-2.167 -0.446,-3.25 z m 11.217,27.658 c 0.446,1.722 2.169,3.506 3.314,4.461 2.231,1.976 4.079,2.422 5.161,2.422 2.55,0 4.08,-2.23 4.08,-5.991 0,-3.759 -2.103,-11.087 -3.25,-13.509 -2.167,-4.461 -5.226,-6.564 -7.584,-6.564 -4.207,0 -5.035,5.289 -5.035,5.671 0,0.127 0,0.255 0.192,1.019 l 3.122,12.491"
             style="fill:#fed70a;fill-opacity:1;fill-rule:nonzero;stroke:none"
             id="path196"
             inkscape:connector-curvature="0" /></g><g
           id="g198"
           transform="translate(1459.5889,730.1592)"><path
             d="m 0,0 c 0,1.205 -0.089,1.25 -1.339,1.25 -2.856,-2.811 -6.917,-2.856 -8.747,-2.856 v -1.606 c 1.071,0 4.016,0 6.47,1.25 v -22.76 c 0,-1.473 0,-2.053 -4.462,-2.053 h -1.695 v -1.606 c 0.802,0.045 6.292,0.178 7.943,0.178 1.383,0 7.007,-0.133 7.987,-0.178 v 1.606 H 4.463 C 0,-26.775 0,-26.195 0,-24.722 V 0"
             style="fill:#fed70a;fill-opacity:1;fill-rule:nonzero;stroke:none"
             id="path200"
             inkscape:connector-curvature="0" /></g><g
           id="g202"
           transform="translate(1529.4355,725.936)"><path
             d="M 0,0 C 1.084,0 2.231,0 2.231,1.275 2.231,2.548 1.084,2.548 0,2.548 h -34.477 c -1.084,0 -2.231,0 -2.231,-1.273 C -36.708,0 -35.561,0 -34.477,0 H 0"
             style="fill:#fed70a;fill-opacity:1;fill-rule:nonzero;stroke:none"
             id="path204"
             inkscape:connector-curvature="0" /></g><g
           id="g206"
           transform="translate(1554.0059,703.5034)"><path
             d="m 0,0 c -0.51,-2.167 -0.637,-2.612 -3.44,-2.612 -0.766,0 -1.466,0 -1.466,-1.211 0,-0.51 0.319,-0.766 0.828,-0.766 1.72,0 3.568,0.192 5.352,0.192 2.104,0 4.272,-0.192 6.311,-0.192 0.317,0 1.145,0 1.145,1.275 0,0.702 -0.636,0.702 -1.528,0.702 -3.186,0 -3.186,0.445 -3.186,1.018 0,0.766 2.675,11.153 3.122,12.747 0.829,-1.848 2.614,-4.08 5.864,-4.08 7.392,0 15.357,9.305 15.357,18.674 0,5.991 -3.632,10.197 -8.474,10.197 -3.189,0 -6.246,-2.296 -8.349,-4.78 -0.638,3.441 -3.379,4.78 -5.736,4.78 -2.931,0 -4.143,-2.486 -4.715,-3.633 -1.147,-2.167 -1.978,-5.991 -1.978,-6.183 0,-0.636 0.639,-0.636 0.767,-0.636 0.637,0 0.699,0.063 1.082,1.466 1.085,4.523 2.357,7.583 4.653,7.583 1.082,0 1.976,-0.51 1.976,-2.932 0,-1.465 -0.191,-2.167 -0.447,-3.25 z m 11.217,27.658 c 0.446,1.722 2.168,3.506 3.313,4.461 2.231,1.976 4.079,2.422 5.161,2.422 2.55,0 4.08,-2.23 4.08,-5.991 0,-3.759 -2.102,-11.087 -3.25,-13.509 -2.167,-4.461 -5.225,-6.564 -7.583,-6.564 -4.208,0 -5.036,5.289 -5.036,5.671 0,0.127 0,0.255 0.192,1.019 l 3.123,12.491"
             style="fill:#fed70a;fill-opacity:1;fill-rule:nonzero;stroke:none"
             id="path208"
             inkscape:connector-curvature="0" /></g><g
           id="g210"
           transform="translate(1606.2656,716.0142)"><path
             d="m 0,0 c 0,4.908 -0.58,8.434 -2.633,11.558 -1.383,2.053 -4.15,3.837 -7.721,3.837 -10.353,0 -10.353,-12.183 -10.353,-15.395 0,-3.214 0,-15.128 10.353,-15.128 C 0,-15.128 0,-3.214 0,0 m -10.354,-13.88 c -2.053,0 -4.775,1.207 -5.667,4.866 -0.625,2.633 -0.625,6.292 -0.625,9.594 0,3.257 0,6.648 0.671,9.103 0.936,3.526 3.792,4.462 5.621,4.462 2.41,0 4.73,-1.472 5.535,-4.061 0.714,-2.409 0.757,-5.622 0.757,-9.504 0,-3.302 0,-6.605 -0.579,-9.416 -0.892,-4.061 -3.928,-5.044 -5.713,-5.044"
             style="fill:#fed70a;fill-opacity:1;fill-rule:nonzero;stroke:none"
             id="path212"
             inkscape:connector-curvature="0" /></g><g
           id="g214"
           transform="translate(1412.5566,684.1211)"><path
             d="M 0,0 H 199.296"
             style="fill:none;stroke:#fed70a;stroke-width:2.54699993;stroke-linecap:butt;stroke-linejoin:miter;stroke-miterlimit:10;stroke-dasharray:none;stroke-opacity:1"
             id="path216"
             inkscape:connector-curvature="0" /></g><g
           id="g218"
           transform="translate(1514.3721,663.0342)"><path
             d="m 0,0 c 0.574,2.294 0.767,2.996 6.756,2.996 1.913,0 2.422,0 2.422,1.211 0,0.764 -0.7,0.764 -1.02,0.764 -2.102,0 -7.329,-0.191 -9.432,-0.191 -1.912,0 -6.565,0.191 -8.476,0.191 -0.445,0 -1.211,0 -1.211,-1.275 0,-0.7 0.574,-0.7 1.785,-0.7 0.126,0 1.337,0 2.422,-0.129 1.148,-0.126 1.721,-0.19 1.721,-1.018 0,-0.257 -0.065,-0.447 -0.255,-1.211 l -8.54,-34.224 c -0.637,-2.484 -0.765,-2.995 -5.8,-2.995 -1.083,0 -1.72,0 -1.72,-1.273 0,-0.702 0.574,-0.702 1.72,-0.702 H 9.88 c 1.528,0 1.593,0 1.974,1.083 l 5.035,13.765 c 0.256,0.702 0.256,0.829 0.256,0.893 0,0.254 -0.193,0.701 -0.765,0.701 -0.574,0 -0.639,-0.319 -1.083,-1.339 C 13.13,-29.315 10.324,-36.581 -0.7,-36.581 h -5.989 c -0.892,0 -1.022,0 -1.404,0.064 -0.637,0.064 -0.828,0.128 -0.828,0.638 0,0.19 0,0.318 0.318,1.465 L 0,0"
             style="fill:#fed70a;fill-opacity:1;fill-rule:nonzero;stroke:none"
             id="path220"
             inkscape:connector-curvature="0" /></g><g
           id="g222"
           transform="translate(1650.5107,692.459)"><path
             d="m 0,0 c 0.255,0.892 0.255,1.019 0.255,1.466 0,1.147 -0.894,1.72 -1.849,1.72 -0.636,0 -1.656,-0.383 -2.23,-1.339 -0.128,-0.319 -0.637,-2.294 -0.892,-3.44 -0.447,-1.658 -0.892,-3.379 -1.275,-5.099 l -2.867,-11.472 c -0.255,-0.954 -2.996,-5.415 -7.202,-5.415 -3.25,0 -3.951,2.803 -3.951,5.161 0,2.932 1.084,6.882 3.25,12.49 1.02,2.614 1.275,3.314 1.275,4.589 0,2.867 -2.039,5.227 -5.225,5.227 -6.056,0 -8.413,-9.241 -8.413,-9.816 0,-0.636 0.638,-0.636 0.765,-0.636 0.636,0 0.701,0.127 1.02,1.147 1.72,5.991 4.269,7.902 6.436,7.902 0.51,0 1.593,0 1.593,-2.039 0,-1.594 -0.637,-3.25 -1.083,-4.461 -2.549,-6.755 -3.696,-10.388 -3.696,-13.383 0,-5.672 4.014,-7.585 7.775,-7.585 2.486,0 4.651,1.085 6.436,2.869 -0.828,-3.314 -1.592,-6.437 -4.143,-9.814 -1.656,-2.167 -4.079,-4.015 -7.009,-4.015 -0.892,0 -3.761,0.19 -4.844,2.676 1.019,0 1.849,0 2.741,0.766 0.638,0.573 1.274,1.401 1.274,2.612 0,1.975 -1.721,2.23 -2.358,2.23 -1.467,0 -3.569,-1.019 -3.569,-4.142 0,-3.186 2.805,-5.544 6.756,-5.544 6.564,0 13.128,5.798 14.913,13 L 0,0"
             style="fill:#fed70a;fill-opacity:1;fill-rule:nonzero;stroke:none"
             id="path224"
             inkscape:connector-curvature="0" /></g><g
           id="g226"
           transform="translate(1693.3047,682.8359)"><path
             d="m 0,0 h 17.779 c 0.893,0 2.103,0 2.103,1.275 0,1.273 -1.21,1.273 -2.103,1.273 H 0 v 17.844 c 0,0.892 0,2.103 -1.275,2.103 -1.275,0 -1.275,-1.211 -1.275,-2.103 V 2.548 h -17.845 c -0.891,0 -2.102,0 -2.102,-1.273 C -22.497,0 -21.286,0 -20.395,0 H -2.55 v -17.844 c 0,-0.892 0,-2.103 1.275,-2.103 C 0,-19.947 0,-18.736 0,-17.844 V 0"
             style="fill:#fed70a;fill-opacity:1;fill-rule:nonzero;stroke:none"
             id="path228"
             inkscape:connector-curvature="0" /></g><g
           id="g230"
           transform="translate(1756.1787,692.395)"><path
             d="M 0,0 C -1.021,0 -1.91,0 -2.811,-0.892 -3.83,-1.848 -3.95,-2.931 -3.95,-3.378 c 0,-1.53 1.139,-2.23 2.349,-2.23 1.851,0 3.571,1.529 3.571,4.079 0,3.121 -2.991,5.481 -7.52,5.481 -8.6,0 -17.08,-9.114 -17.08,-18.1 0,-5.736 3.7,-10.771 10.33,-10.771 9.11,0 14.46,6.757 14.46,7.521 0,0.383 -0.38,0.828 -0.761,0.828 -0.319,0 -0.449,-0.127 -0.829,-0.638 -5.03,-6.307 -11.98,-6.307 -12.75,-6.307 -4.01,0 -5.73,3.121 -5.73,6.945 0,2.614 1.269,8.795 3.44,12.747 1.98,3.631 5.48,6.372 8.99,6.372 C -3.32,2.549 -0.9,1.721 0,0"
             style="fill:#fed70a;fill-opacity:1;fill-rule:nonzero;stroke:none"
             id="path232"
             inkscape:connector-curvature="0" /></g><g
           id="g234"
           transform="translate(1773.4883,686.959)"><path
             d="m 0,0 c 0,1.205 -0.09,1.25 -1.34,1.25 -2.86,-2.811 -6.92,-2.856 -8.75,-2.856 v -1.606 c 1.08,0 4.021,0 6.47,1.25 v -22.76 c 0,-1.473 0,-2.053 -4.46,-2.053 h -1.69 v -1.606 c 0.8,0.045 6.291,0.178 7.94,0.178 1.38,0 7.011,-0.133 7.99,-0.178 v 1.606 H 4.46 C 0,-26.775 0,-26.195 0,-24.722 V 0"
             style="fill:#fed70a;fill-opacity:1;fill-rule:nonzero;stroke:none"
             id="path236"
             inkscape:connector-curvature="0" /></g><g
           id="g238"
           transform="translate(1105.9229,577.3052)"><path
             d="m 0,0 c 0,0.064 0,0.701 -0.828,0.701 -0.956,0 -7.011,-0.573 -8.093,-0.701 -0.512,-0.064 -0.893,-0.383 -0.893,-1.211 0,-0.764 0.574,-0.764 1.53,-0.764 3.057,0 3.185,-0.447 3.185,-1.085 L -5.29,-4.333 -9.114,-19.438 c -1.148,2.358 -2.995,4.08 -5.863,4.08 -7.456,0 -15.359,-9.369 -15.359,-18.674 0,-5.99 3.507,-10.197 8.477,-10.197 1.275,0 4.461,0.255 8.284,4.78 0.511,-2.676 2.741,-4.78 5.8,-4.78 2.23,0 3.696,1.466 4.715,3.507 1.083,2.293 1.914,6.181 1.914,6.308 0,0.637 -0.576,0.637 -0.766,0.637 -0.639,0 -0.702,-0.255 -0.893,-1.147 -1.083,-4.142 -2.229,-7.901 -4.843,-7.901 -1.72,0 -1.912,1.656 -1.912,2.931 0,1.53 0.127,1.975 0.381,3.059 z m -13.256,-35.943 c -0.319,-1.148 -0.319,-1.275 -1.275,-2.359 -2.803,-3.505 -5.415,-4.523 -7.2,-4.523 -3.187,0 -4.081,3.504 -4.081,5.99 0,3.186 2.041,11.025 3.507,13.956 1.976,3.76 4.843,6.118 7.393,6.118 4.141,0 5.034,-5.225 5.034,-5.608 0,-0.383 -0.128,-0.764 -0.192,-1.083 l -3.186,-12.491"
             style="fill:#fed70a;fill-opacity:1;fill-rule:nonzero;stroke:none"
             id="path240"
             inkscape:connector-curvature="0" /></g><g
           id="g242"
           transform="translate(1128.5439,537.3477)"><path
             d="m 0,0 c 0.7,-2.613 2.931,-4.271 5.672,-4.271 2.23,0 3.695,1.465 4.715,3.506 1.085,2.293 1.913,6.182 1.913,6.308 0,0.638 -0.574,0.638 -0.765,0.638 -0.638,0 -0.701,-0.256 -0.892,-1.147 -0.892,-3.569 -2.103,-7.901 -4.78,-7.901 -1.339,0 -1.976,0.828 -1.976,2.93 0,1.402 0.765,4.397 1.274,6.628 l 1.785,6.884 c 0.191,0.953 0.828,3.376 1.082,4.333 0.32,1.465 0.957,3.886 0.957,4.27 0,1.147 -0.892,1.719 -1.848,1.719 -0.32,0 -1.976,-0.064 -2.485,-2.23 C 3.441,17.015 0.637,5.861 -0.127,2.485 -0.191,2.23 -2.741,-2.867 -7.393,-2.867 c -3.314,0 -3.952,2.867 -3.952,5.224 0,3.568 1.784,8.603 3.443,13.001 0.763,1.912 1.083,2.804 1.083,4.015 0,2.867 -2.039,5.227 -5.225,5.227 -6.056,0 -8.413,-9.242 -8.413,-9.816 0,-0.637 0.638,-0.637 0.765,-0.637 0.636,0 0.701,0.127 1.019,1.147 1.593,5.544 4.015,7.902 6.437,7.902 0.573,0 1.593,-0.064 1.593,-2.102 0,-1.531 -0.702,-3.378 -1.083,-4.333 -2.359,-6.31 -3.697,-10.261 -3.697,-13.384 0,-6.055 4.398,-7.648 7.84,-7.648 4.206,0 6.5,2.869 7.583,4.271"
             style="fill:#fed70a;fill-opacity:1;fill-rule:nonzero;stroke:none"
             id="path244"
             inkscape:connector-curvature="0" /></g><g
           id="g246"
           transform="translate(1073.0107,506.5781)"><path
             d="M 0,0 H 69.689"
             style="fill:none;stroke:#fed70a;stroke-width:2.54699993;stroke-linecap:butt;stroke-linejoin:miter;stroke-miterlimit:10;stroke-dasharray:none;stroke-opacity:1"
             id="path248"
             inkscape:connector-curvature="0" /></g><g
           id="g250"
           transform="translate(1107.4229,490.4053)"><path
             d="m 0,0 c 0,0.063 0,0.701 -0.828,0.701 -0.956,0 -7.011,-0.573 -8.093,-0.701 -0.512,-0.064 -0.893,-0.383 -0.893,-1.211 0,-0.764 0.574,-0.764 1.53,-0.764 3.057,0 3.185,-0.447 3.185,-1.086 L -5.29,-4.333 -9.114,-19.438 c -1.148,2.358 -2.995,4.08 -5.863,4.08 -7.456,0 -15.359,-9.37 -15.359,-18.674 0,-5.99 3.507,-10.197 8.477,-10.197 1.275,0 4.461,0.255 8.284,4.78 0.511,-2.676 2.741,-4.78 5.8,-4.78 2.23,0 3.696,1.466 4.715,3.507 1.083,2.293 1.914,6.181 1.914,6.308 0,0.637 -0.576,0.637 -0.766,0.637 -0.639,0 -0.702,-0.255 -0.893,-1.147 -1.083,-4.142 -2.229,-7.901 -4.843,-7.901 -1.72,0 -1.912,1.656 -1.912,2.93 0,1.531 0.127,1.976 0.381,3.06 z m -13.256,-35.943 c -0.319,-1.148 -0.319,-1.275 -1.275,-2.359 -2.803,-3.505 -5.415,-4.523 -7.2,-4.523 -3.187,0 -4.081,3.504 -4.081,5.99 0,3.186 2.041,11.024 3.507,13.956 1.976,3.76 4.843,6.118 7.393,6.118 4.141,0 5.034,-5.225 5.034,-5.608 0,-0.383 -0.128,-0.764 -0.192,-1.083 l -3.186,-12.491"
             style="fill:#fed70a;fill-opacity:1;fill-rule:nonzero;stroke:none"
             id="path252"
             inkscape:connector-curvature="0" /></g><g
           id="g254"
           transform="translate(1138.6104,471.1592)"><path
             d="m 0,0 c 0.255,0.892 0.255,1.019 0.255,1.466 0,1.147 -0.893,1.72 -1.849,1.72 -0.635,0 -1.656,-0.383 -2.23,-1.339 -0.128,-0.319 -0.637,-2.294 -0.892,-3.44 -0.447,-1.658 -0.891,-3.379 -1.275,-5.099 l -2.866,-11.472 c -0.256,-0.954 -2.996,-5.415 -7.202,-5.415 -3.25,0 -3.952,2.803 -3.952,5.161 0,2.932 1.084,6.882 3.25,12.49 1.02,2.614 1.276,3.314 1.276,4.589 0,2.867 -2.039,5.227 -5.226,5.227 -6.055,0 -8.413,-9.241 -8.413,-9.816 0,-0.636 0.639,-0.636 0.766,-0.636 0.636,0 0.7,0.127 1.019,1.147 1.72,5.991 4.27,7.902 6.437,7.902 0.51,0 1.593,0 1.593,-2.039 0,-1.594 -0.638,-3.25 -1.083,-4.461 -2.549,-6.755 -3.697,-10.388 -3.697,-13.383 0,-5.672 4.014,-7.585 7.776,-7.585 2.485,0 4.65,1.085 6.435,2.869 -0.828,-3.314 -1.592,-6.437 -4.142,-9.814 -1.657,-2.167 -4.079,-4.015 -7.01,-4.015 -0.892,0 -3.761,0.19 -4.844,2.676 1.02,0 1.85,0 2.741,0.766 0.638,0.573 1.275,1.401 1.275,2.612 0,1.975 -1.722,2.23 -2.359,2.23 -1.466,0 -3.569,-1.019 -3.569,-4.142 0,-3.186 2.806,-5.544 6.756,-5.544 6.564,0 13.129,5.798 14.913,13 L 0,0"
             style="fill:#fed70a;fill-opacity:1;fill-rule:nonzero;stroke:none"
             id="path256"
             inkscape:connector-curvature="0" /></g><g
           id="g258"
           transform="translate(1211.8193,511.5176)"><path
             d="m 0,0 c 0.957,0 2.167,0 2.167,1.274 0,1.276 -1.21,1.276 -2.103,1.276 h -38.172 c -0.893,0 -2.104,0 -2.104,-1.276 C -40.212,0 -39.001,0 -38.045,0 Z m 0.064,-12.362 c 0.893,0 2.103,0 2.103,1.272 0,1.276 -1.21,1.276 -2.167,1.276 h -38.045 c -0.956,0 -2.167,0 -2.167,-1.276 0,-1.272 1.211,-1.272 2.104,-1.272 H 0.064"
             style="fill:#fed70a;fill-opacity:1;fill-rule:nonzero;stroke:none"
             id="path260"
             inkscape:connector-curvature="0" /></g><g
           id="g262"
           transform="translate(1277.3359,505.3359)"><path
             d="M 0,0 C 1.084,0 2.23,0 2.23,1.275 2.23,2.548 1.084,2.548 0,2.548 h -34.478 c -1.084,0 -2.23,0 -2.23,-1.273 C -36.708,0 -35.562,0 -34.478,0 H 0"
             style="fill:#fed70a;fill-opacity:1;fill-rule:nonzero;stroke:none"
             id="path264"
             inkscape:connector-curvature="0" /></g><g
           id="g266"
           transform="translate(1308.709,514.7676)"><path
             d="m 0,0 c -1.147,2.357 -2.995,4.08 -5.862,4.08 -7.456,0 -15.361,-9.369 -15.361,-18.675 0,-5.989 3.507,-10.196 8.478,-10.196 1.274,0 4.461,0.255 8.283,4.779 0.512,-2.675 2.741,-4.779 5.801,-4.779 2.229,0 3.695,1.466 4.716,3.507 1.083,2.293 1.913,6.18 1.913,6.307 0,0.637 -0.575,0.637 -0.767,0.637 -0.638,0 -0.701,-0.255 -0.891,-1.146 -1.083,-4.142 -2.231,-7.902 -4.844,-7.902 -1.721,0 -1.911,1.657 -1.911,2.932 0,1.4 0.127,1.911 0.828,4.715 0.702,2.677 0.828,3.314 1.401,5.735 l 2.295,8.923 c 0.445,1.784 0.445,1.91 0.445,2.167 0,1.083 -0.763,1.721 -1.847,1.721 C 1.146,2.805 0.192,1.402 0,0 m -4.143,-16.506 c -0.319,-1.147 -0.319,-1.274 -1.274,-2.358 -2.804,-3.505 -5.415,-4.524 -7.2,-4.524 -3.188,0 -4.08,3.504 -4.08,5.991 0,3.186 2.04,11.025 3.507,13.956 1.974,3.759 4.841,6.118 7.391,6.118 4.143,0 5.034,-5.226 5.034,-5.609 0,-0.382 -0.128,-0.763 -0.191,-1.083 l -3.187,-12.491"
             style="fill:#fed70a;fill-opacity:1;fill-rule:nonzero;stroke:none"
             id="path268"
             inkscape:connector-curvature="0" /></g><g
           id="g270"
           transform="translate(1373.8477,430.8799)"><path
             d="m 0,0 c 0,0.254 -0.126,0.382 -0.254,0.573 -2.358,2.359 -6.628,6.628 -10.897,13.511 -10.261,16.442 -14.913,37.153 -14.913,61.689 0,17.142 2.293,39.256 12.81,58.248 5.034,9.049 10.259,14.275 13.064,17.079 0.19,0.192 0.19,0.318 0.19,0.511 0,0.635 -0.445,0.635 -1.337,0.635 -0.892,0 -1.02,0 -1.976,-0.954 -21.349,-19.438 -28.041,-48.625 -28.041,-75.455 0,-25.045 5.736,-50.282 21.923,-69.337 1.275,-1.466 3.697,-4.079 6.31,-6.372 0.764,-0.766 0.892,-0.766 1.784,-0.766 0.892,0 1.337,0 1.337,0.638"
             style="fill:#fed70a;fill-opacity:1;fill-rule:nonzero;stroke:none"
             id="path272"
             inkscape:connector-curvature="0" /></g><g
           id="g274"
           transform="translate(1386.7051,526.0029)"><path
             d="m 0,0 c -0.509,-2.167 -0.636,-2.611 -3.439,-2.611 -0.766,0 -1.466,0 -1.466,-1.211 0,-0.511 0.318,-0.767 0.828,-0.767 1.72,0 3.568,0.193 5.352,0.193 2.104,0 4.272,-0.193 6.311,-0.193 0.317,0 1.145,0 1.145,1.276 0,0.702 -0.636,0.702 -1.529,0.702 -3.185,0 -3.185,0.444 -3.185,1.017 0,0.766 2.675,11.154 3.122,12.747 0.829,-1.847 2.614,-4.08 5.864,-4.08 7.392,0 15.357,9.305 15.357,18.674 0,5.991 -3.632,10.197 -8.474,10.197 -3.189,0 -6.246,-2.296 -8.35,-4.78 -0.637,3.441 -3.378,4.78 -5.735,4.78 -2.932,0 -4.143,-2.486 -4.715,-3.633 -1.148,-2.167 -1.978,-5.991 -1.978,-6.183 0,-0.636 0.638,-0.636 0.766,-0.636 0.638,0 0.7,0.063 1.082,1.466 1.085,4.523 2.358,7.583 4.654,7.583 1.082,0 1.976,-0.51 1.976,-2.932 0,-1.465 -0.191,-2.167 -0.447,-3.25 z m 11.218,27.658 c 0.445,1.722 2.168,3.506 3.313,4.461 2.231,1.976 4.079,2.422 5.161,2.422 2.55,0 4.08,-2.23 4.08,-5.991 0,-3.759 -2.102,-11.087 -3.25,-13.509 -2.167,-4.461 -5.225,-6.563 -7.584,-6.563 -4.207,0 -5.035,5.288 -5.035,5.67 0,0.127 0,0.255 0.192,1.019 l 3.123,12.491"
             style="fill:#fed70a;fill-opacity:1;fill-rule:nonzero;stroke:none"
             id="path276"
             inkscape:connector-curvature="0" /></g><g
           id="g278"
           transform="translate(1430.8887,552.5591)"><path
             d="m 0,0 c 0,1.205 -0.089,1.25 -1.339,1.25 -2.856,-2.811 -6.917,-2.856 -8.747,-2.856 v -1.606 c 1.072,0 4.016,0 6.47,1.25 v -22.76 c 0,-1.473 0,-2.053 -4.462,-2.053 h -1.695 v -1.606 c 0.803,0.046 6.292,0.178 7.943,0.178 1.383,0 7.007,-0.132 7.988,-0.178 v 1.606 H 4.463 C 0,-26.775 0,-26.195 0,-24.722 V 0"
             style="fill:#fed70a;fill-opacity:1;fill-rule:nonzero;stroke:none"
             id="path280"
             inkscape:connector-curvature="0" /></g><g
           id="g282"
           transform="translate(1500.7354,548.436)"><path
             d="M 0,0 C 1.084,0 2.231,0 2.231,1.275 2.231,2.548 1.084,2.548 0,2.548 h -34.477 c -1.084,0 -2.231,0 -2.231,-1.273 C -36.708,0 -35.561,0 -34.477,0 H 0"
             style="fill:#fed70a;fill-opacity:1;fill-rule:nonzero;stroke:none"
             id="path284"
             inkscape:connector-curvature="0" /></g><g
           id="g286"
           transform="translate(1525.3057,526.0029)"><path
             d="m 0,0 c -0.509,-2.167 -0.636,-2.611 -3.44,-2.611 -0.766,0 -1.466,0 -1.466,-1.211 0,-0.511 0.319,-0.767 0.828,-0.767 1.72,0 3.569,0.193 5.352,0.193 2.104,0 4.272,-0.193 6.311,-0.193 0.318,0 1.145,0 1.145,1.276 0,0.702 -0.636,0.702 -1.528,0.702 -3.186,0 -3.186,0.444 -3.186,1.017 0,0.766 2.675,11.154 3.122,12.747 0.829,-1.847 2.614,-4.08 5.864,-4.08 7.392,0 15.358,9.305 15.358,18.674 0,5.991 -3.633,10.197 -8.475,10.197 -3.188,0 -6.246,-2.296 -8.349,-4.78 -0.638,3.441 -3.378,4.78 -5.736,4.78 -2.931,0 -4.142,-2.486 -4.715,-3.633 -1.147,-2.167 -1.978,-5.991 -1.978,-6.183 0,-0.636 0.639,-0.636 0.767,-0.636 0.637,0 0.7,0.063 1.082,1.466 1.085,4.523 2.357,7.583 4.654,7.583 1.081,0 1.975,-0.51 1.975,-2.932 0,-1.465 -0.191,-2.167 -0.447,-3.25 z m 11.217,27.658 c 0.446,1.722 2.168,3.506 3.314,4.461 2.23,1.976 4.079,2.422 5.16,2.422 2.551,0 4.08,-2.23 4.08,-5.991 0,-3.759 -2.102,-11.087 -3.25,-13.509 -2.167,-4.461 -5.225,-6.563 -7.583,-6.563 -4.208,0 -5.035,5.288 -5.035,5.67 0,0.127 0,0.255 0.191,1.019 l 3.123,12.491"
             style="fill:#fed70a;fill-opacity:1;fill-rule:nonzero;stroke:none"
             id="path288"
             inkscape:connector-curvature="0" /></g><g
           id="g290"
           transform="translate(1577.5654,538.4141)"><path
             d="m 0,0 c 0,4.908 -0.58,8.434 -2.633,11.558 -1.383,2.053 -4.15,3.837 -7.721,3.837 -10.353,0 -10.353,-12.183 -10.353,-15.395 0,-3.214 0,-15.128 10.353,-15.128 C 0,-15.128 0,-3.214 0,0 m -10.354,-13.88 c -2.053,0 -4.775,1.207 -5.667,4.866 -0.625,2.633 -0.625,6.292 -0.625,9.594 0,3.257 0,6.648 0.671,9.103 0.936,3.526 3.792,4.462 5.621,4.462 2.41,0 4.73,-1.472 5.535,-4.061 0.715,-2.409 0.758,-5.622 0.758,-9.504 0,-3.302 0,-6.604 -0.58,-9.416 -0.892,-4.06 -3.928,-5.044 -5.713,-5.044"
             style="fill:#fed70a;fill-opacity:1;fill-rule:nonzero;stroke:none"
             id="path292"
             inkscape:connector-curvature="0" /></g><g
           id="g294"
           transform="translate(1383.8711,506.5781)"><path
             d="M 0,0 H 199.296"
             style="fill:none;stroke:#fed70a;stroke-width:2.54699993;stroke-linecap:butt;stroke-linejoin:miter;stroke-miterlimit:10;stroke-dasharray:none;stroke-opacity:1"
             id="path296"
             inkscape:connector-curvature="0" /></g><g
           id="g298"
           transform="translate(1485.6729,485.4346)"><path
             d="m 0,0 c 0.573,2.294 0.766,2.996 6.755,2.996 1.913,0 2.422,0 2.422,1.211 0,0.764 -0.7,0.764 -1.02,0.764 -2.102,0 -7.328,-0.192 -9.432,-0.192 -1.912,0 -6.564,0.192 -8.475,0.192 -0.446,0 -1.211,0 -1.211,-1.276 0,-0.699 0.573,-0.699 1.784,-0.699 0.126,0 1.338,0 2.423,-0.13 1.147,-0.126 1.72,-0.189 1.72,-1.017 0,-0.257 -0.065,-0.448 -0.255,-1.211 l -8.54,-34.224 c -0.636,-2.484 -0.765,-2.995 -5.799,-2.995 -1.083,0 -1.721,0 -1.721,-1.273 0,-0.703 0.574,-0.703 1.721,-0.703 H 9.879 c 1.528,0 1.593,0 1.975,1.083 l 5.034,13.766 c 0.256,0.701 0.256,0.829 0.256,0.893 0,0.253 -0.192,0.701 -0.765,0.701 -0.574,0 -0.639,-0.32 -1.083,-1.339 -2.167,-5.862 -4.973,-13.128 -15.997,-13.128 H -6.69 c -0.892,0 -1.021,0 -1.404,0.063 -0.637,0.065 -0.827,0.128 -0.827,0.639 0,0.19 0,0.317 0.317,1.465 L 0,0"
             style="fill:#fed70a;fill-opacity:1;fill-rule:nonzero;stroke:none"
             id="path300"
             inkscape:connector-curvature="0" /></g><g
           id="g302"
           transform="translate(1624.4229,506.6533)"><path
             d="m 0,0 c 0,25.045 -5.734,50.281 -21.921,69.336 -1.275,1.466 -3.697,4.08 -6.31,6.373 -0.764,0.764 -0.892,0.764 -1.785,0.764 -0.763,0 -1.338,0 -1.338,-0.635 0,-0.257 0.255,-0.511 0.382,-0.638 2.232,-2.295 6.5,-6.564 10.771,-13.447 10.261,-16.442 14.912,-37.155 14.912,-61.69 0,-17.143 -2.293,-39.257 -12.81,-58.248 -5.033,-9.049 -10.322,-14.338 -13,-17.015 -0.128,-0.192 -0.255,-0.383 -0.255,-0.573 0,-0.638 0.575,-0.638 1.338,-0.638 0.893,0 1.021,0 1.976,0.956 C -6.69,-56.018 0,-26.83 0,0"
             style="fill:#fed70a;fill-opacity:1;fill-rule:nonzero;stroke:none"
             id="path304"
             inkscape:connector-curvature="0" /></g><g
           id="g306"
           transform="translate(1643.1826,570.0894)"><path
             d="m 0,0 c -0.178,-0.58 -0.446,-1.695 -0.446,-1.83 0,-0.981 0.804,-1.428 1.518,-1.428 0.803,0 1.517,0.581 1.74,0.983 0.222,0.402 0.58,1.83 0.803,2.766 0.224,0.848 0.714,2.901 0.982,4.017 0.267,0.981 0.536,1.964 0.758,2.989 0.492,1.83 0.581,2.187 1.874,4.017 1.25,1.784 3.347,4.105 6.694,4.105 2.589,0 2.633,-2.275 2.633,-3.124 0,-2.676 -1.919,-7.631 -2.633,-9.504 -0.49,-1.25 -0.669,-1.652 -0.669,-2.41 0,-2.365 1.963,-3.839 4.24,-3.839 4.462,0 6.426,6.16 6.426,6.828 0,0.58 -0.581,0.58 -0.714,0.58 -0.625,0 -0.67,-0.267 -0.848,-0.758 -1.027,-3.57 -2.946,-5.4 -4.73,-5.4 -0.939,0 -1.116,0.625 -1.116,1.563 0,1.026 0.222,1.606 1.025,3.614 0.536,1.383 2.366,6.114 2.366,8.612 0,4.33 -3.436,5.088 -5.802,5.088 -3.704,0 -6.204,-2.277 -7.54,-4.061 -0.313,3.079 -2.946,4.061 -4.775,4.061 -1.919,0 -2.946,-1.383 -3.527,-2.41 -0.981,-1.651 -1.606,-4.195 -1.606,-4.418 0,-0.58 0.625,-0.58 0.759,-0.58 0.625,0 0.669,0.134 0.982,1.339 0.669,2.633 1.517,4.819 3.257,4.819 1.161,0 1.474,-0.982 1.474,-2.186 0,-0.849 -0.402,-2.499 -0.714,-3.705 C 2.098,8.523 1.651,6.694 1.428,5.712 L 0,0"
             style="fill:#fed70a;fill-opacity:1;fill-rule:nonzero;stroke:none"
             id="path308"
             inkscape:connector-curvature="0" /></g><g
           id="g310"
           transform="translate(1714.1104,514.959)"><path
             d="m 0,0 c 0.255,0.893 0.255,1.02 0.255,1.466 0,1.147 -0.893,1.721 -1.849,1.721 -0.635,0 -1.656,-0.384 -2.23,-1.339 -0.128,-0.32 -0.637,-2.295 -0.892,-3.441 -0.447,-1.658 -0.891,-3.379 -1.275,-5.098 l -2.866,-11.473 c -0.256,-0.954 -2.996,-5.415 -7.202,-5.415 -3.25,0 -3.952,2.804 -3.952,5.161 0,2.933 1.084,6.882 3.25,12.49 1.02,2.615 1.276,3.314 1.276,4.589 0,2.867 -2.039,5.228 -5.226,5.228 -6.055,0 -8.413,-9.242 -8.413,-9.817 0,-0.635 0.639,-0.635 0.766,-0.635 0.636,0 0.7,0.126 1.019,1.146 1.72,5.991 4.27,7.902 6.437,7.902 0.51,0 1.593,0 1.593,-2.039 0,-1.593 -0.638,-3.25 -1.083,-4.461 -2.549,-6.755 -3.697,-10.387 -3.697,-13.382 0,-5.672 4.014,-7.585 7.776,-7.585 2.485,0 4.65,1.085 6.435,2.868 -0.828,-3.314 -1.592,-6.437 -4.142,-9.814 -1.657,-2.167 -4.079,-4.014 -7.01,-4.014 -0.892,0 -3.761,0.189 -4.844,2.675 1.02,0 1.85,0 2.741,0.766 0.638,0.573 1.275,1.401 1.275,2.612 0,1.975 -1.722,2.23 -2.359,2.23 -1.466,0 -3.569,-1.019 -3.569,-4.142 0,-3.185 2.806,-5.544 6.756,-5.544 6.564,0 13.129,5.798 14.913,13 L 0,0"
             style="fill:#fed70a;fill-opacity:1;fill-rule:nonzero;stroke:none"
             id="path312"
             inkscape:connector-curvature="0" /></g><g
           id="g314"
           transform="translate(1722.0781,519.7891)"><path
             d="m 0,0 c -0.17,-0.58 -0.439,-1.695 -0.439,-1.83 0,-0.981 0.799,-1.428 1.519,-1.428 0.801,0 1.511,0.581 1.74,0.984 0.22,0.401 0.58,1.829 0.8,2.765 0.221,0.848 0.71,2.902 0.981,4.017 0.269,0.981 0.54,1.964 0.759,2.989 0.491,1.83 0.58,2.188 1.87,4.017 1.25,1.784 3.35,4.105 6.701,4.105 2.59,0 2.63,-2.275 2.63,-3.124 0,-2.676 -1.92,-7.631 -2.63,-9.504 -0.491,-1.25 -0.67,-1.652 -0.67,-2.41 0,-2.365 1.96,-3.839 4.239,-3.839 4.46,0 6.421,6.16 6.421,6.828 0,0.58 -0.58,0.58 -0.711,0.58 -0.619,0 -0.67,-0.267 -0.85,-0.757 -1.019,-3.571 -2.939,-5.401 -4.729,-5.401 -0.941,0 -1.11,0.625 -1.11,1.563 0,1.026 0.219,1.606 1.019,3.614 0.54,1.383 2.37,6.114 2.37,8.612 0,4.33 -3.439,5.088 -5.8,5.088 -3.71,0 -6.21,-2.277 -7.549,-4.06 -0.311,3.078 -2.941,4.06 -4.771,4.06 -1.92,0 -2.945,-1.383 -3.526,-2.41 -0.982,-1.65 -1.607,-4.195 -1.607,-4.418 0,-0.58 0.625,-0.58 0.759,-0.58 0.625,0 0.669,0.134 0.982,1.339 0.67,2.634 1.512,4.819 3.262,4.819 1.16,0 1.471,-0.982 1.471,-2.185 C 3.131,12.584 2.73,10.935 2.41,9.729 2.101,8.523 1.66,6.694 1.431,5.712 L 0,0"
             style="fill:#fed70a;fill-opacity:1;fill-rule:nonzero;stroke:none"
             id="path316"
             inkscape:connector-curvature="0" /></g><g
           id="g318"
           transform="translate(1791.6084,505.3359)"><path
             d="m 0,0 h 17.78 c 0.89,0 2.1,0 2.1,1.275 0,1.273 -1.21,1.273 -2.1,1.273 H 0 v 17.845 c 0,0.891 0,2.102 -1.28,2.102 -1.27,0 -1.27,-1.211 -1.27,-2.102 V 2.548 h -17.849 c -0.891,0 -2.101,0 -2.101,-1.273 C -22.5,0 -21.29,0 -20.399,0 H -2.55 v -17.844 c 0,-0.891 0,-2.102 1.27,-2.102 1.28,0 1.28,1.211 1.28,2.102 L 0,0"
             style="fill:#fed70a;fill-opacity:1;fill-rule:nonzero;stroke:none"
             id="path320"
             inkscape:connector-curvature="0" /></g><g
           id="g322"
           transform="translate(1854.4785,514.8955)"><path
             d="m 0,0 c -1.02,0 -1.91,0 -2.81,-0.893 -1.02,-0.956 -1.14,-2.039 -1.14,-2.485 0,-1.53 1.14,-2.23 2.35,-2.23 1.85,0 3.57,1.529 3.57,4.079 0,3.121 -2.99,5.481 -7.52,5.481 -8.6,0 -17.08,-9.114 -17.08,-18.1 0,-5.737 3.7,-10.771 10.33,-10.771 9.11,0 14.46,6.757 14.46,7.521 0,0.382 -0.38,0.828 -0.76,0.828 -0.32,0 -0.45,-0.127 -0.83,-0.638 -5.03,-6.308 -11.98,-6.308 -12.75,-6.308 -4.01,0 -5.73,3.121 -5.73,6.946 0,2.614 1.27,8.795 3.44,12.747 1.98,3.631 5.48,6.372 8.991,6.372 C -3.32,2.549 -0.9,1.721 0,0"
             style="fill:#fed70a;fill-opacity:1;fill-rule:nonzero;stroke:none"
             id="path324"
             inkscape:connector-curvature="0" /></g><g
           id="g326"
           transform="translate(1862.2783,519.7891)"><path
             d="m 0,0 c -0.17,-0.58 -0.439,-1.695 -0.439,-1.83 0,-0.981 0.799,-1.428 1.519,-1.428 0.8,0 1.51,0.581 1.74,0.984 0.22,0.401 0.58,1.829 0.8,2.765 0.22,0.848 0.71,2.902 0.981,4.017 0.269,0.981 0.54,1.964 0.759,2.989 0.491,1.83 0.58,2.188 1.87,4.017 1.25,1.784 3.35,4.105 6.701,4.105 2.59,0 2.63,-2.275 2.63,-3.124 0,-2.676 -1.92,-7.631 -2.63,-9.504 -0.491,-1.25 -0.671,-1.652 -0.671,-2.41 0,-2.365 1.961,-3.839 4.24,-3.839 4.46,0 6.42,6.16 6.42,6.828 0,0.58 -0.58,0.58 -0.71,0.58 -0.62,0 -0.67,-0.267 -0.85,-0.757 -1.02,-3.571 -2.94,-5.401 -4.73,-5.401 -0.94,0 -1.109,0.625 -1.109,1.563 0,1.026 0.219,1.606 1.019,3.614 0.54,1.383 2.37,6.114 2.37,8.612 0,4.33 -3.439,5.088 -5.8,5.088 -3.71,0 -6.21,-2.277 -7.549,-4.06 -0.311,3.078 -2.941,4.06 -4.771,4.06 -1.92,0 -2.95,-1.383 -3.53,-2.41 -0.98,-1.65 -1.6,-4.195 -1.6,-4.418 0,-0.58 0.62,-0.58 0.76,-0.58 0.62,0 0.67,0.134 0.98,1.339 0.67,2.634 1.51,4.819 3.26,4.819 1.16,0 1.47,-0.982 1.47,-2.185 0,-0.85 -0.4,-2.499 -0.72,-3.705 C 2.101,8.523 1.66,6.694 1.431,5.712 L 0,0"
             style="fill:#fed70a;fill-opacity:1;fill-rule:nonzero;stroke:none"
             id="path328"
             inkscape:connector-curvature="0" /></g><g
           id="g330"
           transform="translate(1871.7881,503.2588)"><path
             d="m 0,0 c 0,1.205 -0.09,1.25 -1.34,1.25 -2.859,-2.811 -6.92,-2.855 -8.75,-2.855 v -1.607 c 1.08,0 4.021,0 6.471,1.25 v -22.76 c 0,-1.472 0,-2.052 -4.46,-2.052 H -9.77 v -1.607 c 0.8,0.045 6.291,0.179 7.941,0.179 1.38,0 7.01,-0.134 7.989,-0.179 v 1.607 H 4.461 C 0,-26.774 0,-26.194 0,-24.722 V 0"
             style="fill:#fed70a;fill-opacity:1;fill-rule:nonzero;stroke:none"
             id="path332"
             inkscape:connector-curvature="0" /></g><g
           id="g334"
           transform="translate(1105.9229,395.3057)"><path
             d="m 0,0 c 0,0.063 0,0.7 -0.828,0.7 -0.956,0 -7.011,-0.572 -8.093,-0.7 -0.512,-0.064 -0.893,-0.384 -0.893,-1.212 0,-0.764 0.574,-0.764 1.53,-0.764 3.057,0 3.185,-0.447 3.185,-1.085 L -5.29,-4.333 -9.114,-19.438 c -1.148,2.358 -2.995,4.08 -5.863,4.08 -7.456,0 -15.359,-9.37 -15.359,-18.674 0,-5.99 3.507,-10.197 8.477,-10.197 1.275,0 4.461,0.254 8.284,4.78 0.511,-2.676 2.741,-4.78 5.8,-4.78 2.23,0 3.696,1.465 4.715,3.506 1.083,2.293 1.914,6.182 1.914,6.309 0,0.637 -0.576,0.637 -0.766,0.637 -0.639,0 -0.702,-0.255 -0.893,-1.148 -1.083,-4.141 -2.229,-7.9 -4.843,-7.9 -1.72,0 -1.912,1.655 -1.912,2.93 0,1.531 0.127,1.975 0.381,3.059 z m -13.256,-35.943 c -0.319,-1.149 -0.319,-1.276 -1.275,-2.36 -2.803,-3.505 -5.415,-4.522 -7.2,-4.522 -3.187,0 -4.081,3.504 -4.081,5.989 0,3.187 2.041,11.025 3.507,13.956 1.976,3.761 4.843,6.118 7.393,6.118 4.141,0 5.034,-5.224 5.034,-5.607 0,-0.384 -0.128,-0.765 -0.192,-1.083 l -3.186,-12.491"
             style="fill:#fed70a;fill-opacity:1;fill-rule:nonzero;stroke:none"
             id="path336"
             inkscape:connector-curvature="0" /></g><g
           id="g338"
           transform="translate(1128.5439,355.3477)"><path
             d="m 0,0 c 0.7,-2.613 2.931,-4.271 5.672,-4.271 2.23,0 3.695,1.465 4.715,3.506 1.085,2.293 1.913,6.182 1.913,6.309 0,0.637 -0.574,0.637 -0.765,0.637 -0.638,0 -0.701,-0.255 -0.892,-1.148 -0.892,-3.568 -2.103,-7.9 -4.78,-7.9 -1.339,0 -1.976,0.828 -1.976,2.93 0,1.402 0.765,4.398 1.274,6.628 l 1.785,6.883 c 0.191,0.954 0.828,3.376 1.082,4.333 0.32,1.465 0.957,3.888 0.957,4.271 0,1.146 -0.892,1.719 -1.848,1.719 -0.32,0 -1.976,-0.063 -2.485,-2.23 C 3.441,17.015 0.637,5.861 -0.127,2.485 -0.191,2.23 -2.741,-2.867 -7.393,-2.867 c -3.314,0 -3.952,2.867 -3.952,5.224 0,3.569 1.784,8.604 3.443,13.001 0.763,1.912 1.083,2.803 1.083,4.014 0,2.867 -2.039,5.228 -5.225,5.228 -6.056,0 -8.413,-9.242 -8.413,-9.817 0,-0.636 0.638,-0.636 0.765,-0.636 0.636,0 0.701,0.127 1.019,1.148 1.593,5.544 4.015,7.901 6.437,7.901 0.573,0 1.593,-0.063 1.593,-2.102 0,-1.531 -0.702,-3.377 -1.083,-4.333 -2.359,-6.311 -3.697,-10.261 -3.697,-13.383 0,-6.056 4.398,-7.649 7.84,-7.649 4.206,0 6.5,2.869 7.583,4.271"
             style="fill:#fed70a;fill-opacity:1;fill-rule:nonzero;stroke:none"
             id="path340"
             inkscape:connector-curvature="0" /></g><g
           id="g342"
           transform="translate(1073.0107,324.5889)"><path
             d="M 0,0 H 69.689"
             style="fill:none;stroke:#fed70a;stroke-width:2.54699993;stroke-linecap:butt;stroke-linejoin:miter;stroke-miterlimit:10;stroke-dasharray:none;stroke-opacity:1"
             id="path344"
             inkscape:connector-curvature="0" /></g><g
           id="g346"
           transform="translate(1107.4229,308.4053)"><path
             d="m 0,0 c 0,0.063 0,0.701 -0.828,0.701 -0.956,0 -7.011,-0.573 -8.093,-0.701 -0.512,-0.064 -0.893,-0.383 -0.893,-1.212 0,-0.764 0.574,-0.764 1.53,-0.764 3.057,0 3.185,-0.446 3.185,-1.084 L -5.29,-4.333 -9.114,-19.437 c -1.148,2.357 -2.995,4.079 -5.863,4.079 -7.456,0 -15.359,-9.37 -15.359,-18.674 0,-5.99 3.507,-10.197 8.477,-10.197 1.275,0 4.461,0.255 8.284,4.78 0.511,-2.676 2.741,-4.78 5.8,-4.78 2.23,0 3.696,1.466 4.715,3.506 1.083,2.294 1.914,6.182 1.914,6.308 0,0.638 -0.576,0.638 -0.766,0.638 -0.639,0 -0.702,-0.255 -0.893,-1.147 -1.083,-4.142 -2.229,-7.901 -4.843,-7.901 -1.72,0 -1.912,1.656 -1.912,2.93 0,1.531 0.127,1.976 0.381,3.06 z m -13.256,-35.942 c -0.319,-1.149 -0.319,-1.276 -1.275,-2.36 -2.803,-3.505 -5.415,-4.523 -7.2,-4.523 -3.187,0 -4.081,3.505 -4.081,5.99 0,3.186 2.041,11.025 3.507,13.956 1.976,3.76 4.843,6.117 7.393,6.117 4.141,0 5.034,-5.224 5.034,-5.607 0,-0.383 -0.128,-0.764 -0.192,-1.083 l -3.186,-12.49"
             style="fill:#fed70a;fill-opacity:1;fill-rule:nonzero;stroke:none"
             id="path348"
             inkscape:connector-curvature="0" /></g><g
           id="g350"
           transform="translate(1138.6104,289.1592)"><path
             d="m 0,0 c 0.255,0.893 0.255,1.019 0.255,1.466 0,1.147 -0.893,1.721 -1.849,1.721 -0.635,0 -1.656,-0.383 -2.23,-1.34 -0.128,-0.319 -0.637,-2.293 -0.892,-3.441 -0.447,-1.657 -0.891,-3.378 -1.275,-5.097 l -2.866,-11.473 c -0.256,-0.954 -2.996,-5.415 -7.202,-5.415 -3.25,0 -3.952,2.803 -3.952,5.16 0,2.934 1.084,6.883 3.25,12.491 1.02,2.615 1.276,3.315 1.276,4.589 0,2.867 -2.039,5.227 -5.226,5.227 -6.055,0 -8.413,-9.241 -8.413,-9.816 0,-0.635 0.639,-0.635 0.766,-0.635 0.636,0 0.7,0.126 1.019,1.146 1.72,5.991 4.27,7.901 6.437,7.901 0.51,0 1.593,0 1.593,-2.039 0,-1.593 -0.638,-3.25 -1.083,-4.461 -2.549,-6.755 -3.697,-10.387 -3.697,-13.382 0,-5.672 4.014,-7.584 7.776,-7.584 2.485,0 4.65,1.084 6.435,2.869 -0.828,-3.315 -1.592,-6.438 -4.142,-9.815 -1.657,-2.167 -4.079,-4.015 -7.01,-4.015 -0.892,0 -3.761,0.19 -4.844,2.676 1.02,0 1.85,0 2.741,0.766 0.638,0.573 1.275,1.401 1.275,2.612 0,1.975 -1.722,2.23 -2.359,2.23 -1.466,0 -3.569,-1.019 -3.569,-4.142 0,-3.186 2.806,-5.544 6.756,-5.544 6.564,0 13.129,5.798 14.913,13 L 0,0"
             style="fill:#fed70a;fill-opacity:1;fill-rule:nonzero;stroke:none"
             id="path352"
             inkscape:connector-curvature="0" /></g><g
           id="g354"
           transform="translate(1211.8193,329.5176)"><path
             d="m 0,0 c 0.957,0 2.167,0 2.167,1.274 0,1.276 -1.21,1.276 -2.103,1.276 h -38.172 c -0.893,0 -2.104,0 -2.104,-1.276 C -40.212,0 -39.001,0 -38.045,0 Z m 0.064,-12.362 c 0.893,0 2.103,0 2.103,1.272 0,1.276 -1.21,1.276 -2.167,1.276 h -38.045 c -0.956,0 -2.167,0 -2.167,-1.276 0,-1.272 1.211,-1.272 2.104,-1.272 H 0.064"
             style="fill:#fed70a;fill-opacity:1;fill-rule:nonzero;stroke:none"
             id="path356"
             inkscape:connector-curvature="0" /></g><g
           id="g358"
           transform="translate(1277.3359,323.3359)"><path
             d="M 0,0 C 1.084,0 2.23,0 2.23,1.275 2.23,2.549 1.084,2.549 0,2.549 h -34.478 c -1.084,0 -2.23,0 -2.23,-1.274 C -36.708,0 -35.562,0 -34.478,0 H 0"
             style="fill:#fed70a;fill-opacity:1;fill-rule:nonzero;stroke:none"
             id="path360"
             inkscape:connector-curvature="0" /></g><g
           id="g362"
           transform="translate(1308.709,332.7676)"><path
             d="m 0,0 c -1.147,2.357 -2.995,4.079 -5.862,4.079 -7.456,0 -15.361,-9.368 -15.361,-18.673 0,-5.991 3.507,-10.197 8.478,-10.197 1.274,0 4.461,0.255 8.283,4.779 0.512,-2.675 2.741,-4.779 5.801,-4.779 2.229,0 3.695,1.466 4.716,3.507 1.083,2.293 1.913,6.18 1.913,6.307 0,0.637 -0.575,0.637 -0.767,0.637 -0.638,0 -0.701,-0.254 -0.891,-1.146 -1.083,-4.143 -2.231,-7.902 -4.844,-7.902 -1.721,0 -1.911,1.657 -1.911,2.931 0,1.402 0.127,1.911 0.828,4.716 0.702,2.677 0.828,3.314 1.401,5.736 l 2.295,8.922 C 4.524,0.701 4.524,0.828 4.524,1.084 4.524,2.167 3.761,2.805 2.677,2.805 1.146,2.805 0.192,1.403 0,0 m -4.143,-16.505 c -0.319,-1.148 -0.319,-1.275 -1.274,-2.359 -2.804,-3.505 -5.415,-4.524 -7.2,-4.524 -3.188,0 -4.08,3.505 -4.08,5.991 0,3.186 2.04,11.025 3.507,13.956 1.974,3.759 4.841,6.117 7.391,6.117 4.143,0 5.034,-5.225 5.034,-5.608 0,-0.382 -0.128,-0.763 -0.191,-1.083 l -3.187,-12.49"
             style="fill:#fed70a;fill-opacity:1;fill-rule:nonzero;stroke:none"
             id="path364"
             inkscape:connector-curvature="0" /></g><g
           id="g366"
           transform="translate(1373.8477,248.8799)"><path
             d="m 0,0 c 0,0.255 -0.126,0.383 -0.254,0.573 -2.358,2.358 -6.628,6.628 -10.897,13.511 -10.261,16.442 -14.913,37.153 -14.913,61.689 0,17.143 2.293,39.256 12.81,58.248 5.034,9.049 10.259,14.275 13.064,17.08 0.19,0.191 0.19,0.317 0.19,0.51 0,0.635 -0.445,0.635 -1.337,0.635 -0.892,0 -1.02,0 -1.976,-0.954 -21.349,-19.438 -28.041,-48.625 -28.041,-75.454 0,-25.046 5.736,-50.283 21.923,-69.338 1.275,-1.466 3.697,-4.078 6.31,-6.372 0.764,-0.766 0.892,-0.766 1.784,-0.766 0.892,0 1.337,0 1.337,0.638"
             style="fill:#fed70a;fill-opacity:1;fill-rule:nonzero;stroke:none"
             id="path368"
             inkscape:connector-curvature="0" /></g><g
           id="g370"
           transform="translate(1386.7051,344.0029)"><path
             d="m 0,0 c -0.509,-2.167 -0.636,-2.612 -3.439,-2.612 -0.766,0 -1.466,0 -1.466,-1.211 0,-0.509 0.318,-0.766 0.828,-0.766 1.72,0 3.568,0.193 5.352,0.193 2.104,0 4.272,-0.193 6.311,-0.193 0.317,0 1.145,0 1.145,1.276 0,0.701 -0.636,0.701 -1.529,0.701 -3.185,0 -3.185,0.445 -3.185,1.018 0,0.766 2.675,11.154 3.122,12.747 0.829,-1.847 2.614,-4.08 5.864,-4.08 7.392,0 15.357,9.305 15.357,18.674 0,5.991 -3.632,10.197 -8.474,10.197 -3.189,0 -6.246,-2.296 -8.35,-4.78 -0.637,3.441 -3.378,4.78 -5.735,4.78 -2.932,0 -4.143,-2.486 -4.715,-3.632 -1.148,-2.167 -1.978,-5.992 -1.978,-6.184 0,-0.636 0.638,-0.636 0.766,-0.636 0.638,0 0.7,0.064 1.082,1.466 1.085,4.523 2.358,7.583 4.654,7.583 1.082,0 1.976,-0.51 1.976,-2.932 0,-1.464 -0.191,-2.167 -0.447,-3.25 z m 11.218,27.658 c 0.445,1.722 2.168,3.506 3.313,4.461 2.231,1.977 4.079,2.422 5.161,2.422 2.55,0 4.08,-2.229 4.08,-5.991 0,-3.759 -2.102,-11.087 -3.25,-13.509 -2.167,-4.461 -5.225,-6.563 -7.584,-6.563 -4.207,0 -5.035,5.289 -5.035,5.67 0,0.127 0,0.255 0.192,1.019 l 3.123,12.491"
             style="fill:#fed70a;fill-opacity:1;fill-rule:nonzero;stroke:none"
             id="path372"
             inkscape:connector-curvature="0" /></g><g
           id="g374"
           transform="translate(1430.8887,370.5596)"><path
             d="m 0,0 c 0,1.205 -0.089,1.25 -1.339,1.25 -2.856,-2.812 -6.917,-2.856 -8.747,-2.856 v -1.606 c 1.072,0 4.016,0 6.47,1.25 v -22.76 c 0,-1.473 0,-2.053 -4.462,-2.053 h -1.695 v -1.607 c 0.803,0.046 6.292,0.179 7.943,0.179 1.383,0 7.007,-0.133 7.988,-0.179 v 1.607 H 4.463 C 0,-26.775 0,-26.195 0,-24.722 V 0"
             style="fill:#fed70a;fill-opacity:1;fill-rule:nonzero;stroke:none"
             id="path376"
             inkscape:connector-curvature="0" /></g><g
           id="g378"
           transform="translate(1500.7354,366.4365)"><path
             d="M 0,0 C 1.084,0 2.231,0 2.231,1.274 2.231,2.548 1.084,2.548 0,2.548 h -34.477 c -1.084,0 -2.231,0 -2.231,-1.274 C -36.708,0 -35.561,0 -34.477,0 H 0"
             style="fill:#fed70a;fill-opacity:1;fill-rule:nonzero;stroke:none"
             id="path380"
             inkscape:connector-curvature="0" /></g><g
           id="g382"
           transform="translate(1525.3057,344.0029)"><path
             d="m 0,0 c -0.509,-2.167 -0.636,-2.612 -3.44,-2.612 -0.766,0 -1.466,0 -1.466,-1.211 0,-0.509 0.319,-0.766 0.828,-0.766 1.72,0 3.569,0.193 5.352,0.193 2.104,0 4.272,-0.193 6.311,-0.193 0.318,0 1.145,0 1.145,1.276 0,0.701 -0.636,0.701 -1.528,0.701 -3.186,0 -3.186,0.445 -3.186,1.018 0,0.766 2.675,11.154 3.122,12.747 0.829,-1.847 2.614,-4.08 5.864,-4.08 7.392,0 15.358,9.305 15.358,18.674 0,5.991 -3.633,10.197 -8.475,10.197 -3.188,0 -6.246,-2.296 -8.349,-4.78 -0.638,3.441 -3.378,4.78 -5.736,4.78 -2.931,0 -4.142,-2.486 -4.715,-3.632 -1.147,-2.167 -1.978,-5.992 -1.978,-6.184 0,-0.636 0.639,-0.636 0.767,-0.636 0.637,0 0.7,0.064 1.082,1.466 1.085,4.523 2.357,7.583 4.654,7.583 1.081,0 1.975,-0.51 1.975,-2.932 0,-1.464 -0.191,-2.167 -0.447,-3.25 z m 11.217,27.658 c 0.446,1.722 2.168,3.506 3.314,4.461 2.23,1.977 4.079,2.422 5.16,2.422 2.551,0 4.08,-2.229 4.08,-5.991 0,-3.759 -2.102,-11.087 -3.25,-13.509 -2.167,-4.461 -5.225,-6.563 -7.583,-6.563 -4.208,0 -5.035,5.289 -5.035,5.67 0,0.127 0,0.255 0.191,1.019 l 3.123,12.491"
             style="fill:#fed70a;fill-opacity:1;fill-rule:nonzero;stroke:none"
             id="path384"
             inkscape:connector-curvature="0" /></g><g
           id="g386"
           transform="translate(1577.5654,356.4141)"><path
             d="m 0,0 c 0,4.908 -0.58,8.435 -2.633,11.559 -1.383,2.052 -4.15,3.837 -7.721,3.837 -10.353,0 -10.353,-12.184 -10.353,-15.396 0,-3.214 0,-15.128 10.353,-15.128 C 0,-15.128 0,-3.214 0,0 m -10.354,-13.88 c -2.053,0 -4.775,1.206 -5.667,4.866 -0.625,2.633 -0.625,6.292 -0.625,9.594 0,3.257 0,6.649 0.671,9.104 0.936,3.525 3.792,4.462 5.621,4.462 2.41,0 4.73,-1.473 5.535,-4.062 0.715,-2.409 0.758,-5.622 0.758,-9.504 0,-3.302 0,-6.604 -0.58,-9.416 -0.892,-4.06 -3.928,-5.044 -5.713,-5.044"
             style="fill:#fed70a;fill-opacity:1;fill-rule:nonzero;stroke:none"
             id="path388"
             inkscape:connector-curvature="0" /></g><g
           id="g390"
           transform="translate(1383.8711,324.5889)"><path
             d="M 0,0 H 199.296"
             style="fill:none;stroke:#fed70a;stroke-width:2.54699993;stroke-linecap:butt;stroke-linejoin:miter;stroke-miterlimit:10;stroke-dasharray:none;stroke-opacity:1"
             id="path392"
             inkscape:connector-curvature="0" /></g><g
           id="g394"
           transform="translate(1485.6729,303.4346)"><path
             d="m 0,0 c 0.573,2.294 0.766,2.995 6.755,2.995 1.913,0 2.422,0 2.422,1.211 0,0.765 -0.7,0.765 -1.02,0.765 -2.102,0 -7.328,-0.192 -9.432,-0.192 -1.912,0 -6.564,0.192 -8.475,0.192 -0.446,0 -1.211,0 -1.211,-1.276 0,-0.7 0.573,-0.7 1.784,-0.7 0.126,0 1.338,0 2.423,-0.128 1.147,-0.127 1.72,-0.19 1.72,-1.018 0,-0.257 -0.065,-0.448 -0.255,-1.211 l -8.54,-34.224 c -0.636,-2.484 -0.765,-2.995 -5.799,-2.995 -1.083,0 -1.721,0 -1.721,-1.273 0,-0.703 0.574,-0.703 1.721,-0.703 H 9.879 c 1.528,0 1.593,0 1.975,1.083 l 5.034,13.766 c 0.256,0.701 0.256,0.828 0.256,0.893 0,0.253 -0.192,0.701 -0.765,0.701 -0.574,0 -0.639,-0.319 -1.083,-1.339 -2.167,-5.862 -4.973,-13.128 -15.997,-13.128 H -6.69 c -0.892,0 -1.021,0 -1.404,0.063 -0.637,0.065 -0.827,0.129 -0.827,0.638 0,0.191 0,0.318 0.317,1.466 L 0,0"
             style="fill:#fed70a;fill-opacity:1;fill-rule:nonzero;stroke:none"
             id="path396"
             inkscape:connector-curvature="0" /></g><g
           id="g398"
           transform="translate(1624.4229,324.6533)"><path
             d="m 0,0 c 0,25.045 -5.734,50.281 -21.921,69.336 -1.275,1.466 -3.697,4.08 -6.31,6.373 -0.764,0.764 -0.892,0.764 -1.785,0.764 -0.763,0 -1.338,0 -1.338,-0.635 0,-0.257 0.255,-0.511 0.382,-0.638 2.232,-2.295 6.5,-6.564 10.771,-13.447 C -9.94,45.311 -5.289,24.598 -5.289,0.064 c 0,-17.144 -2.293,-39.257 -12.81,-58.249 -5.033,-9.049 -10.322,-14.338 -13,-17.015 -0.128,-0.191 -0.255,-0.383 -0.255,-0.573 0,-0.638 0.575,-0.638 1.338,-0.638 0.893,0 1.021,0 1.976,0.956 C -6.69,-56.018 0,-26.83 0,0"
             style="fill:#fed70a;fill-opacity:1;fill-rule:nonzero;stroke:none"
             id="path400"
             inkscape:connector-curvature="0" /></g><g
           id="g402"
           transform="translate(1643.1826,388.1895)"><path
             d="m 0,0 c -0.178,-0.58 -0.446,-1.695 -0.446,-1.83 0,-0.982 0.804,-1.428 1.518,-1.428 0.803,0 1.517,0.58 1.74,0.983 0.222,0.402 0.58,1.83 0.803,2.766 0.224,0.848 0.714,2.901 0.982,4.017 0.267,0.98 0.536,1.964 0.758,2.989 0.492,1.83 0.581,2.187 1.874,4.017 1.25,1.784 3.347,4.105 6.694,4.105 2.589,0 2.633,-2.275 2.633,-3.124 0,-2.677 -1.919,-7.632 -2.633,-9.504 -0.49,-1.25 -0.669,-1.652 -0.669,-2.41 0,-2.365 1.963,-3.839 4.24,-3.839 4.462,0 6.426,6.159 6.426,6.827 0,0.58 -0.581,0.58 -0.714,0.58 -0.625,0 -0.67,-0.266 -0.848,-0.757 -1.027,-3.571 -2.946,-5.4 -4.73,-5.4 -0.939,0 -1.116,0.625 -1.116,1.563 0,1.026 0.222,1.606 1.025,3.614 0.536,1.383 2.366,6.114 2.366,8.611 0,4.33 -3.436,5.089 -5.802,5.089 -3.704,0 -6.204,-2.277 -7.54,-4.061 -0.313,3.079 -2.946,4.061 -4.775,4.061 -1.919,0 -2.946,-1.384 -3.527,-2.41 -0.981,-1.651 -1.606,-4.195 -1.606,-4.418 0,-0.58 0.625,-0.58 0.759,-0.58 0.625,0 0.669,0.134 0.982,1.339 0.669,2.633 1.517,4.819 3.257,4.819 1.161,0 1.474,-0.982 1.474,-2.186 0,-0.849 -0.402,-2.499 -0.714,-3.705 C 2.098,8.522 1.651,6.693 1.428,5.712 L 0,0"
             style="fill:#fed70a;fill-opacity:1;fill-rule:nonzero;stroke:none"
             id="path404"
             inkscape:connector-curvature="0" /></g><g
           id="g406"
           transform="translate(1714.1104,332.96)"><path
             d="m 0,0 c 0.255,0.892 0.255,1.019 0.255,1.465 0,1.147 -0.893,1.721 -1.849,1.721 -0.635,0 -1.656,-0.383 -2.23,-1.339 -0.128,-0.32 -0.637,-2.294 -0.892,-3.442 -0.447,-1.657 -0.891,-3.378 -1.275,-5.097 l -2.866,-11.472 c -0.256,-0.955 -2.996,-5.416 -7.202,-5.416 -3.25,0 -3.952,2.803 -3.952,5.161 0,2.933 1.084,6.883 3.25,12.49 1.02,2.615 1.276,3.315 1.276,4.589 0,2.867 -2.039,5.227 -5.226,5.227 -6.055,0 -8.413,-9.241 -8.413,-9.816 0,-0.635 0.639,-0.635 0.766,-0.635 0.636,0 0.7,0.127 1.019,1.146 1.72,5.991 4.27,7.901 6.437,7.901 0.51,0 1.593,0 1.593,-2.038 0,-1.594 -0.638,-3.25 -1.083,-4.462 -2.549,-6.754 -3.697,-10.386 -3.697,-13.382 0,-5.672 4.014,-7.584 7.776,-7.584 2.485,0 4.65,1.084 6.435,2.869 -0.828,-3.315 -1.592,-6.438 -4.142,-9.815 -1.657,-2.167 -4.079,-4.015 -7.01,-4.015 -0.892,0 -3.761,0.19 -4.844,2.676 1.02,0 1.85,0 2.741,0.766 0.638,0.573 1.275,1.401 1.275,2.612 0,1.976 -1.722,2.23 -2.359,2.23 -1.466,0 -3.569,-1.019 -3.569,-4.142 0,-3.186 2.806,-5.544 6.756,-5.544 6.564,0 13.129,5.799 14.913,13 L 0,0"
             style="fill:#fed70a;fill-opacity:1;fill-rule:nonzero;stroke:none"
             id="path408"
             inkscape:connector-curvature="0" /></g><g
           id="g410"
           transform="translate(1722.0781,337.7891)"><path
             d="m 0,0 c -0.17,-0.579 -0.439,-1.695 -0.439,-1.829 0,-0.982 0.799,-1.429 1.519,-1.429 0.801,0 1.511,0.581 1.74,0.983 0.22,0.402 0.58,1.83 0.8,2.766 0.221,0.848 0.71,2.902 0.981,4.017 0.269,0.981 0.54,1.964 0.759,2.989 0.491,1.829 0.58,2.188 1.87,4.017 1.25,1.784 3.35,4.105 6.701,4.105 2.59,0 2.63,-2.275 2.63,-3.124 0,-2.677 -1.92,-7.631 -2.63,-9.504 -0.491,-1.25 -0.67,-1.652 -0.67,-2.41 0,-2.365 1.96,-3.839 4.239,-3.839 4.46,0 6.421,6.159 6.421,6.828 0,0.58 -0.58,0.58 -0.711,0.58 -0.619,0 -0.67,-0.267 -0.85,-0.757 -1.019,-3.571 -2.939,-5.401 -4.729,-5.401 -0.941,0 -1.11,0.625 -1.11,1.563 0,1.026 0.219,1.606 1.019,3.614 0.54,1.383 2.37,6.114 2.37,8.612 0,4.33 -3.439,5.088 -5.8,5.088 -3.71,0 -6.21,-2.277 -7.549,-4.06 -0.311,3.078 -2.941,4.06 -4.771,4.06 -1.92,0 -2.945,-1.383 -3.526,-2.41 -0.982,-1.65 -1.607,-4.195 -1.607,-4.418 0,-0.58 0.625,-0.58 0.759,-0.58 0.625,0 0.669,0.135 0.982,1.339 0.67,2.634 1.512,4.819 3.262,4.819 1.16,0 1.471,-0.982 1.471,-2.185 C 3.131,12.584 2.73,10.935 2.41,9.729 2.101,8.523 1.66,6.694 1.431,5.713 L 0,0"
             style="fill:#fed70a;fill-opacity:1;fill-rule:nonzero;stroke:none"
             id="path412"
             inkscape:connector-curvature="0" /></g></g></g><g
       id="g414"
       style="fill:#333333;fill-opacity:1;fill-rule:nonzero"><g
         id="g416"
         clip-path="url(#clipPath420)"
         style="fill:#333333;fill-opacity:1;fill-rule:nonzero"><g
           id="g422"
           style="fill:#333333;fill-opacity:1;fill-rule:nonzero"><g
             id="g424"
             style="fill:#333333;fill-opacity:1;fill-rule:nonzero" /><g
             id="g456"
             mask="url(#mask444)"
             style="fill:#333333;fill-opacity:1;fill-rule:nonzero"><g
               id="g458"
               style="fill:#333333;fill-opacity:1;fill-rule:nonzero"><path
                 d="M 688.077,241.879 H 1920 V 959.88 H 688.077 Z"
                 style="fill:#333333;fill-opacity:1;fill-rule:nonzero;stroke:none"
                 id="path474"
                 inkscape:connector-curvature="0" /></g></g></g></g></g><text
       transform="matrix(1,0,0,-1,45.5371,169.0132)"
       style="font-variant:normal;font-weight:300;font-stretch:normal;font-size:106px;font-family:'Avenir Light';-inkscape-font-specification:Avenir-Light;writing-mode:lr-tb;fill:#ffffff;fill-opacity:1;fill-rule:nonzero;stroke:none"
       id="text502"><tspan
         x="0 27.559999 86.496002 121.794 155.18401 218.14799 245.70799 281.00601 343.97 371.53 459.93399 518.87 573.88397 632.82001 668.21338 693.65338 728.95142 783.96539 819.36938 844.80939 893.88739 952.82343 980.38342 1062.8514 1121.7874 1184.7513 1210.1914 1273.1554 1337.9214 1386.9994 1414.5594 1469.6794 1524.7994"
         y="0"
         sodipodi:role="line"
         id="tspan500">Intro to Quantitative Geology 2019</tspan></text>
<text
       transform="matrix(1,0,0,-1,45.5371,63.4131)"
       style="font-variant:normal;font-weight:300;font-stretch:normal;font-size:64px;font-family:'Avenir Light';-inkscape-font-specification:Avenir-Light;writing-mode:lr-tb;fill:#ffdc00;fill-opacity:1;fill-rule:nonzero;stroke:none"
       id="text506"><tspan
         sodipodi:role="line"
         id="tspan4198"
         x="0"
         y="0">Lesson 1 - Basic geostatistics</tspan></text>
<g
       id="g476"
       style="fill:#ffffff;fill-opacity:1"><g
         id="g478"
         clip-path="url(#clipPath482)"
         style="fill:#ffffff;fill-opacity:1"><g
           id="g484"
           style="fill:#ffffff;fill-opacity:1"><g
             id="g486"
             style="fill:#ffffff;fill-opacity:1" /><g
             id="g498"
             style="fill:#ffffff;fill-opacity:1"><g
               clip-path="url(#clipPath490)"
               id="g496"
               style="opacity:0.30000299;fill:#ffffff;fill-opacity:1"><text
                 transform="matrix(1,0,0,-1,1184.188,989.4375)"
                 style="font-variant:normal;font-weight:300;font-stretch:normal;font-size:64px;font-family:'Avenir Light';-inkscape-font-specification:Avenir-Light;writing-mode:lr-tb;fill:#ffffff;fill-opacity:1;fill-rule:nonzero;stroke:none"
                 id="text494"><tspan
                   x="0 35.584 56.959999 78.272003 117.376 144.64 161.28 184.96001 208.64 224 259.58401 280.896 301.04959 339.06561 378.16959 417.27359 433.9136 473.01761 488.37759 509.7536 545.33759 580.92157 620.02557 636.66559 652.02557"
                   y="0"
                   sodipodi:role="line"
                   id="tspan492"
                   style="font-size:64px;fill:#ffffff;fill-opacity:1">https://introqg.github.io</tspan></text>
</g></g></g></g></g></g></svg>